<?xml version="1.0" encoding="utf-8" standalone="no"?>
<!DOCTYPE svg PUBLIC "-//W3C//DTD SVG 1.1//EN"
  "http://www.w3.org/Graphics/SVG/1.1/DTD/svg11.dtd">
<svg xmlns:xlink="http://www.w3.org/1999/xlink" width="720pt" height="360pt" viewBox="0 0 720 360" xmlns="http://www.w3.org/2000/svg" version="1.1">
 <metadata>
  <rdf:RDF xmlns:dc="http://purl.org/dc/elements/1.1/" xmlns:cc="http://creativecommons.org/ns#" xmlns:rdf="http://www.w3.org/1999/02/22-rdf-syntax-ns#">
   <cc:Work>
    <dc:type rdf:resource="http://purl.org/dc/dcmitype/StillImage"/>
    <dc:date>2024-06-13T16:33:02.390299</dc:date>
    <dc:format>image/svg+xml</dc:format>
    <dc:creator>
     <cc:Agent>
      <dc:title>Matplotlib v3.7.1, https://matplotlib.org/</dc:title>
     </cc:Agent>
    </dc:creator>
   </cc:Work>
  </rdf:RDF>
 </metadata>
 <defs>
  <style type="text/css">*{stroke-linejoin: round; stroke-linecap: butt}</style>
 </defs>
 <g id="figure_1">
  <g id="patch_1">
   <path d="M 0 360 
L 720 360 
L 720 0 
L 0 0 
z
" style="fill: #ffffff"/>
  </g>
  <g id="axes_1">
   <g id="patch_2">
    <path d="M 90 320.4 
L 648 320.4 
L 648 43.2 
L 90 43.2 
z
" style="fill: #ffffff"/>
   </g>
   <g id="matplotlib.axis_1">
    <g id="xtick_1">
     <g id="line2d_1">
      <defs>
       <path id="mbf2937465c" d="M 0 0 
L 0 3.5 
" style="stroke: #000000; stroke-width: 0.8"/>
      </defs>
      <g>
       <use xlink:href="#mbf2937465c" x="90" y="320.4" style="stroke: #000000; stroke-width: 0.8"/>
      </g>
     </g>
     <g id="text_1">
      <!-- 0 -->
      <g transform="translate(86.81875 334.998438) scale(0.1 -0.1)">
       <defs>
        <path id="DejaVuSans-30" d="M 2034 4250 
Q 1547 4250 1301 3770 
Q 1056 3291 1056 2328 
Q 1056 1369 1301 889 
Q 1547 409 2034 409 
Q 2525 409 2770 889 
Q 3016 1369 3016 2328 
Q 3016 3291 2770 3770 
Q 2525 4250 2034 4250 
z
M 2034 4750 
Q 2819 4750 3233 4129 
Q 3647 3509 3647 2328 
Q 3647 1150 3233 529 
Q 2819 -91 2034 -91 
Q 1250 -91 836 529 
Q 422 1150 422 2328 
Q 422 3509 836 4129 
Q 1250 4750 2034 4750 
z
" transform="scale(0.015625)"/>
       </defs>
       <use xlink:href="#DejaVuSans-30"/>
      </g>
     </g>
    </g>
    <g id="xtick_2">
     <g id="line2d_2">
      <g>
       <use xlink:href="#mbf2937465c" x="201.6" y="320.4" style="stroke: #000000; stroke-width: 0.8"/>
      </g>
     </g>
     <g id="text_2">
      <!-- 20 -->
      <g transform="translate(195.2375 334.998438) scale(0.1 -0.1)">
       <defs>
        <path id="DejaVuSans-32" d="M 1228 531 
L 3431 531 
L 3431 0 
L 469 0 
L 469 531 
Q 828 903 1448 1529 
Q 2069 2156 2228 2338 
Q 2531 2678 2651 2914 
Q 2772 3150 2772 3378 
Q 2772 3750 2511 3984 
Q 2250 4219 1831 4219 
Q 1534 4219 1204 4116 
Q 875 4013 500 3803 
L 500 4441 
Q 881 4594 1212 4672 
Q 1544 4750 1819 4750 
Q 2544 4750 2975 4387 
Q 3406 4025 3406 3419 
Q 3406 3131 3298 2873 
Q 3191 2616 2906 2266 
Q 2828 2175 2409 1742 
Q 1991 1309 1228 531 
z
" transform="scale(0.015625)"/>
       </defs>
       <use xlink:href="#DejaVuSans-32"/>
       <use xlink:href="#DejaVuSans-30" x="63.623047"/>
      </g>
     </g>
    </g>
    <g id="xtick_3">
     <g id="line2d_3">
      <g>
       <use xlink:href="#mbf2937465c" x="313.2" y="320.4" style="stroke: #000000; stroke-width: 0.8"/>
      </g>
     </g>
     <g id="text_3">
      <!-- 40 -->
      <g transform="translate(306.8375 334.998438) scale(0.1 -0.1)">
       <defs>
        <path id="DejaVuSans-34" d="M 2419 4116 
L 825 1625 
L 2419 1625 
L 2419 4116 
z
M 2253 4666 
L 3047 4666 
L 3047 1625 
L 3713 1625 
L 3713 1100 
L 3047 1100 
L 3047 0 
L 2419 0 
L 2419 1100 
L 313 1100 
L 313 1709 
L 2253 4666 
z
" transform="scale(0.015625)"/>
       </defs>
       <use xlink:href="#DejaVuSans-34"/>
       <use xlink:href="#DejaVuSans-30" x="63.623047"/>
      </g>
     </g>
    </g>
    <g id="xtick_4">
     <g id="line2d_4">
      <g>
       <use xlink:href="#mbf2937465c" x="424.8" y="320.4" style="stroke: #000000; stroke-width: 0.8"/>
      </g>
     </g>
     <g id="text_4">
      <!-- 60 -->
      <g transform="translate(418.4375 334.998438) scale(0.1 -0.1)">
       <defs>
        <path id="DejaVuSans-36" d="M 2113 2584 
Q 1688 2584 1439 2293 
Q 1191 2003 1191 1497 
Q 1191 994 1439 701 
Q 1688 409 2113 409 
Q 2538 409 2786 701 
Q 3034 994 3034 1497 
Q 3034 2003 2786 2293 
Q 2538 2584 2113 2584 
z
M 3366 4563 
L 3366 3988 
Q 3128 4100 2886 4159 
Q 2644 4219 2406 4219 
Q 1781 4219 1451 3797 
Q 1122 3375 1075 2522 
Q 1259 2794 1537 2939 
Q 1816 3084 2150 3084 
Q 2853 3084 3261 2657 
Q 3669 2231 3669 1497 
Q 3669 778 3244 343 
Q 2819 -91 2113 -91 
Q 1303 -91 875 529 
Q 447 1150 447 2328 
Q 447 3434 972 4092 
Q 1497 4750 2381 4750 
Q 2619 4750 2861 4703 
Q 3103 4656 3366 4563 
z
" transform="scale(0.015625)"/>
       </defs>
       <use xlink:href="#DejaVuSans-36"/>
       <use xlink:href="#DejaVuSans-30" x="63.623047"/>
      </g>
     </g>
    </g>
    <g id="xtick_5">
     <g id="line2d_5">
      <g>
       <use xlink:href="#mbf2937465c" x="536.4" y="320.4" style="stroke: #000000; stroke-width: 0.8"/>
      </g>
     </g>
     <g id="text_5">
      <!-- 80 -->
      <g transform="translate(530.0375 334.998438) scale(0.1 -0.1)">
       <defs>
        <path id="DejaVuSans-38" d="M 2034 2216 
Q 1584 2216 1326 1975 
Q 1069 1734 1069 1313 
Q 1069 891 1326 650 
Q 1584 409 2034 409 
Q 2484 409 2743 651 
Q 3003 894 3003 1313 
Q 3003 1734 2745 1975 
Q 2488 2216 2034 2216 
z
M 1403 2484 
Q 997 2584 770 2862 
Q 544 3141 544 3541 
Q 544 4100 942 4425 
Q 1341 4750 2034 4750 
Q 2731 4750 3128 4425 
Q 3525 4100 3525 3541 
Q 3525 3141 3298 2862 
Q 3072 2584 2669 2484 
Q 3125 2378 3379 2068 
Q 3634 1759 3634 1313 
Q 3634 634 3220 271 
Q 2806 -91 2034 -91 
Q 1263 -91 848 271 
Q 434 634 434 1313 
Q 434 1759 690 2068 
Q 947 2378 1403 2484 
z
M 1172 3481 
Q 1172 3119 1398 2916 
Q 1625 2713 2034 2713 
Q 2441 2713 2670 2916 
Q 2900 3119 2900 3481 
Q 2900 3844 2670 4047 
Q 2441 4250 2034 4250 
Q 1625 4250 1398 4047 
Q 1172 3844 1172 3481 
z
" transform="scale(0.015625)"/>
       </defs>
       <use xlink:href="#DejaVuSans-38"/>
       <use xlink:href="#DejaVuSans-30" x="63.623047"/>
      </g>
     </g>
    </g>
    <g id="xtick_6">
     <g id="line2d_6">
      <g>
       <use xlink:href="#mbf2937465c" x="648" y="320.4" style="stroke: #000000; stroke-width: 0.8"/>
      </g>
     </g>
     <g id="text_6">
      <!-- 100 -->
      <g transform="translate(638.45625 334.998438) scale(0.1 -0.1)">
       <defs>
        <path id="DejaVuSans-31" d="M 794 531 
L 1825 531 
L 1825 4091 
L 703 3866 
L 703 4441 
L 1819 4666 
L 2450 4666 
L 2450 531 
L 3481 531 
L 3481 0 
L 794 0 
L 794 531 
z
" transform="scale(0.015625)"/>
       </defs>
       <use xlink:href="#DejaVuSans-31"/>
       <use xlink:href="#DejaVuSans-30" x="63.623047"/>
       <use xlink:href="#DejaVuSans-30" x="127.246094"/>
      </g>
     </g>
    </g>
   </g>
   <g id="matplotlib.axis_2">
    <g id="ytick_1">
     <g id="line2d_7">
      <defs>
       <path id="m6ebd637aed" d="M 0 0 
L -3.5 0 
" style="stroke: #000000; stroke-width: 0.8"/>
      </defs>
      <g>
       <use xlink:href="#m6ebd637aed" x="90" y="307.8" style="stroke: #000000; stroke-width: 0.8"/>
      </g>
     </g>
     <g id="text_7">
      <!-- 0 -->
      <g transform="translate(76.6375 311.599219) scale(0.1 -0.1)">
       <use xlink:href="#DejaVuSans-30"/>
      </g>
     </g>
    </g>
    <g id="ytick_2">
     <g id="line2d_8">
      <g>
       <use xlink:href="#m6ebd637aed" x="90" y="269.70649" style="stroke: #000000; stroke-width: 0.8"/>
      </g>
     </g>
     <g id="text_8">
      <!-- 1000 -->
      <g transform="translate(57.55 273.505708) scale(0.1 -0.1)">
       <use xlink:href="#DejaVuSans-31"/>
       <use xlink:href="#DejaVuSans-30" x="63.623047"/>
       <use xlink:href="#DejaVuSans-30" x="127.246094"/>
       <use xlink:href="#DejaVuSans-30" x="190.869141"/>
      </g>
     </g>
    </g>
    <g id="ytick_3">
     <g id="line2d_9">
      <g>
       <use xlink:href="#m6ebd637aed" x="90" y="231.612979" style="stroke: #000000; stroke-width: 0.8"/>
      </g>
     </g>
     <g id="text_9">
      <!-- 2000 -->
      <g transform="translate(57.55 235.412198) scale(0.1 -0.1)">
       <use xlink:href="#DejaVuSans-32"/>
       <use xlink:href="#DejaVuSans-30" x="63.623047"/>
       <use xlink:href="#DejaVuSans-30" x="127.246094"/>
       <use xlink:href="#DejaVuSans-30" x="190.869141"/>
      </g>
     </g>
    </g>
    <g id="ytick_4">
     <g id="line2d_10">
      <g>
       <use xlink:href="#m6ebd637aed" x="90" y="193.519469" style="stroke: #000000; stroke-width: 0.8"/>
      </g>
     </g>
     <g id="text_10">
      <!-- 3000 -->
      <g transform="translate(57.55 197.318687) scale(0.1 -0.1)">
       <defs>
        <path id="DejaVuSans-33" d="M 2597 2516 
Q 3050 2419 3304 2112 
Q 3559 1806 3559 1356 
Q 3559 666 3084 287 
Q 2609 -91 1734 -91 
Q 1441 -91 1130 -33 
Q 819 25 488 141 
L 488 750 
Q 750 597 1062 519 
Q 1375 441 1716 441 
Q 2309 441 2620 675 
Q 2931 909 2931 1356 
Q 2931 1769 2642 2001 
Q 2353 2234 1838 2234 
L 1294 2234 
L 1294 2753 
L 1863 2753 
Q 2328 2753 2575 2939 
Q 2822 3125 2822 3475 
Q 2822 3834 2567 4026 
Q 2313 4219 1838 4219 
Q 1578 4219 1281 4162 
Q 984 4106 628 3988 
L 628 4550 
Q 988 4650 1302 4700 
Q 1616 4750 1894 4750 
Q 2613 4750 3031 4423 
Q 3450 4097 3450 3541 
Q 3450 3153 3228 2886 
Q 3006 2619 2597 2516 
z
" transform="scale(0.015625)"/>
       </defs>
       <use xlink:href="#DejaVuSans-33"/>
       <use xlink:href="#DejaVuSans-30" x="63.623047"/>
       <use xlink:href="#DejaVuSans-30" x="127.246094"/>
       <use xlink:href="#DejaVuSans-30" x="190.869141"/>
      </g>
     </g>
    </g>
    <g id="ytick_5">
     <g id="line2d_11">
      <g>
       <use xlink:href="#m6ebd637aed" x="90" y="155.425958" style="stroke: #000000; stroke-width: 0.8"/>
      </g>
     </g>
     <g id="text_11">
      <!-- 4000 -->
      <g transform="translate(57.55 159.225177) scale(0.1 -0.1)">
       <use xlink:href="#DejaVuSans-34"/>
       <use xlink:href="#DejaVuSans-30" x="63.623047"/>
       <use xlink:href="#DejaVuSans-30" x="127.246094"/>
       <use xlink:href="#DejaVuSans-30" x="190.869141"/>
      </g>
     </g>
    </g>
    <g id="ytick_6">
     <g id="line2d_12">
      <g>
       <use xlink:href="#m6ebd637aed" x="90" y="117.332448" style="stroke: #000000; stroke-width: 0.8"/>
      </g>
     </g>
     <g id="text_12">
      <!-- 5000 -->
      <g transform="translate(57.55 121.131666) scale(0.1 -0.1)">
       <defs>
        <path id="DejaVuSans-35" d="M 691 4666 
L 3169 4666 
L 3169 4134 
L 1269 4134 
L 1269 2991 
Q 1406 3038 1543 3061 
Q 1681 3084 1819 3084 
Q 2600 3084 3056 2656 
Q 3513 2228 3513 1497 
Q 3513 744 3044 326 
Q 2575 -91 1722 -91 
Q 1428 -91 1123 -41 
Q 819 9 494 109 
L 494 744 
Q 775 591 1075 516 
Q 1375 441 1709 441 
Q 2250 441 2565 725 
Q 2881 1009 2881 1497 
Q 2881 1984 2565 2268 
Q 2250 2553 1709 2553 
Q 1456 2553 1204 2497 
Q 953 2441 691 2322 
L 691 4666 
z
" transform="scale(0.015625)"/>
       </defs>
       <use xlink:href="#DejaVuSans-35"/>
       <use xlink:href="#DejaVuSans-30" x="63.623047"/>
       <use xlink:href="#DejaVuSans-30" x="127.246094"/>
       <use xlink:href="#DejaVuSans-30" x="190.869141"/>
      </g>
     </g>
    </g>
    <g id="ytick_7">
     <g id="line2d_13">
      <g>
       <use xlink:href="#m6ebd637aed" x="90" y="79.238937" style="stroke: #000000; stroke-width: 0.8"/>
      </g>
     </g>
     <g id="text_13">
      <!-- 6000 -->
      <g transform="translate(57.55 83.038156) scale(0.1 -0.1)">
       <use xlink:href="#DejaVuSans-36"/>
       <use xlink:href="#DejaVuSans-30" x="63.623047"/>
       <use xlink:href="#DejaVuSans-30" x="127.246094"/>
       <use xlink:href="#DejaVuSans-30" x="190.869141"/>
      </g>
     </g>
    </g>
   </g>
   <g id="line2d_14">
    <path d="M 95.58 307.419065 
L 101.16 307.365734 
L 106.74 307.175266 
L 112.32 306.779094 
L 117.9 306.15817 
L 123.48 304.782994 
L 129.06 302.070736 
L 134.64 297.019537 
L 140.22 287.861857 
L 145.8 273.058718 
L 151.38 251.794921 
L 156.96 226.550351 
L 162.54 201.26007 
L 168.12 179.523913 
L 173.7 164.33603 
L 179.28 155.844987 
L 184.86 151.864215 
L 190.44 151.624226 
L 196.02 154.107923 
L 201.6 158.260115 
L 207.18 164.39698 
L 212.76 171.299524 
L 218.34 178.377298 
L 223.92 185.916004 
L 229.5 193.751839 
L 235.08 200.38011 
L 240.66 207.000762 
L 246.24 213.149054 
L 251.82 219.251635 
L 257.4 224.923759 
L 262.98 230.153998 
L 268.56 235.269956 
L 274.14 239.829749 
L 279.72 244.084794 
L 285.3 247.958904 
L 290.88 252.004435 
L 296.46 255.535704 
L 302.04 258.754605 
L 307.62 261.996363 
L 313.2 264.956229 
L 318.78 267.729436 
L 324.36 270.285511 
L 329.94 272.75778 
L 335.52 274.673883 
L 341.1 276.63189 
L 346.68 278.460378 
L 352.26 280.159349 
L 357.84 281.648805 
L 363.42 283.134452 
L 369 284.300113 
L 374.58 285.454347 
L 380.16 286.235264 
L 385.74 287.149508 
L 391.32 287.850429 
L 396.9 288.627536 
L 402.48 289.408453 
L 408.06 290.067471 
L 413.64 290.410312 
L 419.22 290.829341 
L 424.8 291.233132 
L 430.38 291.415981 
L 435.96 291.671208 
L 441.54 292.174042 
L 447.12 292.562596 
L 452.7 292.638783 
L 458.28 292.680686 
L 463.86 292.932103 
L 469.44 292.981624 
L 475.02 292.928294 
L 480.6 292.867344 
L 486.18 292.516884 
L 491.76 292.151186 
L 497.34 291.934053 
L 502.92 291.724539 
L 508.5 291.450265 
L 514.08 291.084568 
L 519.66 290.509356 
L 525.24 290.158895 
L 530.82 289.560827 
L 536.4 288.981806 
L 541.98 288.185651 
L 547.56 287.515206 
L 553.14 286.920947 
L 558.72 286.570487 
L 564.3 285.968609 
L 569.88 285.686717 
L 575.46 285.271498 
L 581.04 284.703905 
L 586.62 284.041078 
L 592.2 283.511578 
L 597.78 283.305873 
L 603.36 282.742089 
L 608.94 282.163067 
L 614.52 281.79737 
L 620.1 281.264061 
L 625.68 281.012643 
L 631.26 280.780273 
L 636.84 280.315532 
L 642.42 280.048878 
L 648 279.706036 
" clip-path="url(#p4a0f681971)" style="fill: none; stroke: #ff0000; stroke-width: 1.5; stroke-linecap: square"/>
   </g>
   <g id="line2d_15">
    <path d="M 95.58 307.8 
L 101.16 307.773335 
L 106.74 307.750478 
L 112.32 307.727622 
L 117.9 307.678101 
L 123.48 307.590486 
L 129.06 307.384781 
L 134.64 307.076223 
L 140.22 306.550533 
L 145.8 305.651526 
L 151.38 303.86875 
L 156.96 301.221251 
L 162.54 297.709029 
L 168.12 293.644451 
L 173.7 289.351313 
L 179.28 285.077221 
L 184.86 280.9136 
L 190.44 277.477566 
L 196.02 274.776736 
L 201.6 272.487316 
L 207.18 270.826439 
L 212.76 269.340792 
L 218.34 268.262745 
L 223.92 267.76753 
L 229.5 268.041803 
L 235.08 268.380835 
L 240.66 268.902716 
L 246.24 269.828389 
L 251.82 270.856914 
L 257.4 272.232089 
L 262.98 273.355848 
L 268.56 274.578649 
L 274.14 275.835735 
L 279.72 277.081393 
L 285.3 278.376572 
L 290.88 279.709845 
L 296.46 281.039309 
L 302.04 282.273539 
L 307.62 283.603002 
L 313.2 284.936275 
L 318.78 286.227645 
L 324.36 287.419972 
L 329.94 288.711342 
L 335.52 289.583683 
L 341.1 290.604589 
L 346.68 291.579783 
L 352.26 292.566405 
L 357.84 293.488268 
L 363.42 294.303469 
L 369 295.019627 
L 374.58 295.724357 
L 380.16 296.288141 
L 385.74 296.867162 
L 391.32 297.442374 
L 396.9 298.009968 
L 402.48 298.432806 
L 408.06 298.848025 
L 413.64 299.213723 
L 419.22 299.705129 
L 424.8 300.040352 
L 430.38 300.352719 
L 435.96 300.691751 
L 441.54 301.034593 
L 447.12 301.40029 
L 452.7 301.537427 
L 458.28 301.826938 
L 463.86 301.99074 
L 469.44 302.196445 
L 475.02 302.314534 
L 480.6 302.440243 
L 486.18 302.482146 
L 491.76 302.451671 
L 497.34 302.413578 
L 502.92 302.524049 
L 508.5 302.596426 
L 514.08 302.569761 
L 519.66 302.493574 
L 525.24 302.45548 
L 530.82 302.383103 
L 536.4 302.314534 
L 541.98 302.192635 
L 547.56 302.059308 
L 553.14 301.853603 
L 558.72 301.724085 
L 564.3 301.548855 
L 569.88 301.465049 
L 575.46 301.308866 
L 581.04 301.152682 
L 586.62 301.023164 
L 592.2 300.962215 
L 597.78 300.878409 
L 603.36 300.661276 
L 608.94 300.459381 
L 614.52 300.394622 
L 620.1 300.261294 
L 625.68 300.025115 
L 631.26 299.903215 
L 636.84 299.735604 
L 642.42 299.663226 
L 648 299.40419 
" clip-path="url(#p4a0f681971)" style="fill: none; stroke: #0000ff; stroke-width: 1.5; stroke-linecap: square"/>
   </g>
   <g id="line2d_16">
    <path d="M 95.58 307.8 
L 101.16 307.761906 
L 106.74 307.727622 
L 112.32 307.651435 
L 117.9 307.518108 
L 123.48 307.335259 
L 129.06 306.923849 
L 134.64 306.177216 
L 140.22 304.737282 
L 145.8 302.032643 
L 151.38 297.70141 
L 156.96 290.989334 
L 162.54 282.014503 
L 168.12 270.415029 
L 173.7 256.96421 
L 179.28 242.500104 
L 184.86 227.917908 
L 190.44 213.556655 
L 196.02 199.248732 
L 201.6 185.832198 
L 207.18 172.811836 
L 212.76 160.34383 
L 218.34 149.033867 
L 223.92 138.074364 
L 229.5 127.876731 
L 235.08 119.366641 
L 240.66 111.33272 
L 246.24 104.312086 
L 251.82 97.641912 
L 257.4 91.31077 
L 262.98 86.118625 
L 268.56 81.2198 
L 274.14 77.090463 
L 279.72 73.403011 
L 285.3 70.309818 
L 290.88 67.372808 
L 296.46 65.026248 
L 302.04 63.148238 
L 307.62 61.293084 
L 313.2 59.681729 
L 318.78 58.276078 
L 324.36 57.293266 
L 329.94 56.44759 
L 335.52 56.230457 
L 341.1 55.971421 
L 346.68 55.819047 
L 352.26 55.8 
L 357.84 56.070464 
L 363.42 56.348547 
L 369 57.118035 
L 374.58 57.792291 
L 380.16 58.721772 
L 385.74 59.49888 
L 391.32 60.283606 
L 396.9 61.235944 
L 402.48 62.275897 
L 408.06 63.342515 
L 413.64 64.881493 
L 419.22 65.795737 
L 424.8 66.862355 
L 430.38 68.119441 
L 435.96 69.167013 
L 441.54 70.199347 
L 447.12 71.505954 
L 452.7 72.76304 
L 458.28 73.966795 
L 463.86 75.086744 
L 469.44 76.568582 
L 475.02 77.783765 
L 480.6 78.739912 
L 486.18 79.970332 
L 491.76 81.246465 
L 497.34 82.358796 
L 502.92 83.372083 
L 508.5 84.301565 
L 514.08 85.097719 
L 519.66 86.156719 
L 525.24 86.85002 
L 530.82 87.714743 
L 536.4 88.621369 
L 541.98 89.524185 
L 547.56 90.076541 
L 553.14 90.655562 
L 558.72 90.948882 
L 564.3 91.386958 
L 569.88 91.466954 
L 575.46 91.885982 
L 581.04 92.202159 
L 586.62 92.514525 
L 592.2 92.529763 
L 597.78 92.324058 
L 603.36 92.423101 
L 608.94 92.365961 
L 614.52 92.476432 
L 620.1 92.407864 
L 625.68 92.244061 
L 631.26 92.259299 
L 636.84 92.091687 
L 642.42 91.847889 
L 648 91.672659 
" clip-path="url(#p4a0f681971)" style="fill: none; stroke: #228b22; stroke-width: 1.5; stroke-linecap: square"/>
   </g>
   <g id="patch_3">
    <path d="M 90 320.4 
L 90 43.2 
" style="fill: none; stroke: #000000; stroke-width: 0.8; stroke-linejoin: miter; stroke-linecap: square"/>
   </g>
   <g id="patch_4">
    <path d="M 648 320.4 
L 648 43.2 
" style="fill: none; stroke: #000000; stroke-width: 0.8; stroke-linejoin: miter; stroke-linecap: square"/>
   </g>
   <g id="patch_5">
    <path d="M 90 320.4 
L 648 320.4 
" style="fill: none; stroke: #000000; stroke-width: 0.8; stroke-linejoin: miter; stroke-linecap: square"/>
   </g>
   <g id="patch_6">
    <path d="M 90 43.2 
L 648 43.2 
" style="fill: none; stroke: #000000; stroke-width: 0.8; stroke-linejoin: miter; stroke-linecap: square"/>
   </g>
   <g id="legend_1">
    <g id="line2d_17">
     <path d="M 99 56.298437 
L 109 56.298437 
L 119 56.298437 
" style="fill: none; stroke: #ff0000; stroke-width: 1.5; stroke-linecap: square"/>
    </g>
    <g id="text_14">
     <!-- I+D -->
     <g transform="translate(127 59.798437) scale(0.1 -0.1)">
      <defs>
       <path id="DejaVuSans-49" d="M 628 4666 
L 1259 4666 
L 1259 0 
L 628 0 
L 628 4666 
z
" transform="scale(0.015625)"/>
       <path id="DejaVuSans-2b" d="M 2944 4013 
L 2944 2272 
L 4684 2272 
L 4684 1741 
L 2944 1741 
L 2944 0 
L 2419 0 
L 2419 1741 
L 678 1741 
L 678 2272 
L 2419 2272 
L 2419 4013 
L 2944 4013 
z
" transform="scale(0.015625)"/>
       <path id="DejaVuSans-44" d="M 1259 4147 
L 1259 519 
L 2022 519 
Q 2988 519 3436 956 
Q 3884 1394 3884 2338 
Q 3884 3275 3436 3711 
Q 2988 4147 2022 4147 
L 1259 4147 
z
M 628 4666 
L 1925 4666 
Q 3281 4666 3915 4102 
Q 4550 3538 4550 2338 
Q 4550 1131 3912 565 
Q 3275 0 1925 0 
L 628 0 
L 628 4666 
z
" transform="scale(0.015625)"/>
      </defs>
      <use xlink:href="#DejaVuSans-49"/>
      <use xlink:href="#DejaVuSans-2b" x="29.492188"/>
      <use xlink:href="#DejaVuSans-44" x="113.28125"/>
     </g>
    </g>
    <g id="line2d_18">
     <path d="M 99 70.976562 
L 109 70.976562 
L 119 70.976562 
" style="fill: none; stroke: #0000ff; stroke-width: 1.5; stroke-linecap: square"/>
    </g>
    <g id="text_15">
     <!-- D -->
     <g transform="translate(127 74.476562) scale(0.1 -0.1)">
      <use xlink:href="#DejaVuSans-44"/>
     </g>
    </g>
    <g id="line2d_19">
     <path d="M 99 85.654687 
L 109 85.654687 
L 119 85.654687 
" style="fill: none; stroke: #228b22; stroke-width: 1.5; stroke-linecap: square"/>
    </g>
    <g id="text_16">
     <!-- R -->
     <g transform="translate(127 89.154687) scale(0.1 -0.1)">
      <defs>
       <path id="DejaVuSans-52" d="M 2841 2188 
Q 3044 2119 3236 1894 
Q 3428 1669 3622 1275 
L 4263 0 
L 3584 0 
L 2988 1197 
Q 2756 1666 2539 1819 
Q 2322 1972 1947 1972 
L 1259 1972 
L 1259 0 
L 628 0 
L 628 4666 
L 2053 4666 
Q 2853 4666 3247 4331 
Q 3641 3997 3641 3322 
Q 3641 2881 3436 2590 
Q 3231 2300 2841 2188 
z
M 1259 4147 
L 1259 2491 
L 2053 2491 
Q 2509 2491 2742 2702 
Q 2975 2913 2975 3322 
Q 2975 3731 2742 3939 
Q 2509 4147 2053 4147 
L 1259 4147 
z
" transform="scale(0.015625)"/>
      </defs>
      <use xlink:href="#DejaVuSans-52"/>
     </g>
    </g>
   </g>
  </g>
 </g>
 <defs>
  <clipPath id="p4a0f681971">
   <rect x="90" y="43.2" width="558" height="277.2"/>
  </clipPath>
 </defs>
</svg>
