<?xml version="1.0" encoding="utf-8" standalone="no"?>
<!DOCTYPE svg PUBLIC "-//W3C//DTD SVG 1.1//EN"
  "http://www.w3.org/Graphics/SVG/1.1/DTD/svg11.dtd">
<svg xmlns:xlink="http://www.w3.org/1999/xlink" width="374.4pt" height="144pt" viewBox="0 0 374.4 144" xmlns="http://www.w3.org/2000/svg" version="1.1">
 <metadata>
  <rdf:RDF xmlns:dc="http://purl.org/dc/elements/1.1/" xmlns:cc="http://creativecommons.org/ns#" xmlns:rdf="http://www.w3.org/1999/02/22-rdf-syntax-ns#">
   <cc:Work>
    <dc:type rdf:resource="http://purl.org/dc/dcmitype/StillImage"/>
    <dc:date>2025-04-02T12:12:31.752650</dc:date>
    <dc:format>image/svg+xml</dc:format>
    <dc:creator>
     <cc:Agent>
      <dc:title>Matplotlib v3.9.4, https://matplotlib.org/</dc:title>
     </cc:Agent>
    </dc:creator>
   </cc:Work>
  </rdf:RDF>
 </metadata>
 <defs>
  <style type="text/css">*{stroke-linejoin: round; stroke-linecap: butt}</style>
 </defs>
 <g id="figure_1">
  <g id="patch_1">
   <path d="M 0 144 
L 374.4 144 
L 374.4 0 
L 0 0 
z
" style="fill: #ffffff"/>
  </g>
  <g id="axes_1">
   <g id="patch_2">
    <path d="M 41.276 113.024 
L 173.898457 113.024 
L 173.898457 14.76 
L 41.276 14.76 
z
" style="fill: #ffffff"/>
   </g>
   <g id="PolyCollection_1">
    <defs>
     <path id="m814d8f6f3b" d="M 41.276 -129.24 
L 41.276 -37.803043 
L 42.602225 -40.553347 
L 43.928449 -42.947662 
L 45.254674 -45.032067 
L 46.580898 -46.846676 
L 47.907123 -48.426409 
L 49.233347 -49.801667 
L 50.559572 -50.998918 
L 51.885797 -52.041202 
L 53.212021 -52.948577 
L 54.538246 -34.268816 
L 55.86447 -37.476575 
L 57.190695 -40.269136 
L 58.516919 -42.700238 
L 59.843144 -44.816669 
L 61.169369 -46.659157 
L 62.495593 -48.263162 
L 63.821818 -49.659551 
L 65.148042 -50.875197 
L 66.474267 -51.933494 
L 67.800491 -52.85481 
L 69.126716 -53.656875 
L 70.452941 -54.355124 
L 71.779165 -54.962994 
L 73.10539 -55.492184 
L 74.431614 -33.74814 
L 75.757839 -37.023293 
L 77.084063 -39.874524 
L 78.410288 -42.356704 
L 79.736513 -44.5176 
L 81.062737 -46.398799 
L 82.388962 -48.036503 
L 83.715186 -49.46223 
L 85.041411 -50.703416 
L 86.367635 -51.783948 
L 87.69386 -52.724621 
L 89.020085 -53.543537 
L 90.346309 -54.256456 
L 91.672534 -54.877097 
L 92.998758 -55.417406 
L 94.324983 -55.887778 
L 95.651207 -56.297268 
L 96.977432 -56.653755 
L 98.303657 -56.9641 
L 99.629881 -57.234276 
L 100.956106 -57.46948 
L 102.28233 -57.674241 
L 103.608555 -57.852499 
L 104.934779 -58.007683 
L 106.261004 -58.142781 
L 107.587229 -32.855923 
L 108.913453 -36.246562 
L 110.239678 -39.19833 
L 111.565902 -41.768033 
L 112.892127 -44.005124 
L 114.218351 -45.952656 
L 115.544576 -47.648107 
L 116.870801 -49.124106 
L 118.197025 -50.409058 
L 119.52325 -51.527691 
L 120.849474 -52.501532 
L 122.175699 -53.349324 
L 123.501923 -54.087381 
L 124.828148 -54.729907 
L 126.154373 -55.289267 
L 127.480597 -55.776225 
L 128.806822 -56.200154 
L 130.133046 -56.569211 
L 131.459271 -56.890499 
L 132.785495 -57.170201 
L 134.11172 -32.119551 
L 135.437945 -35.605503 
L 136.764169 -38.640247 
L 138.090394 -41.282186 
L 139.416618 -43.582163 
L 140.742843 -45.584441 
L 142.069067 -47.327553 
L 143.395292 -48.845043 
L 144.721517 -50.166115 
L 146.047741 -51.316194 
L 147.373966 -52.317411 
L 148.70019 -53.189034 
L 150.026415 -53.947838 
L 151.35264 -54.608426 
L 152.678864 -55.18351 
L 154.005089 -55.684157 
L 155.331313 -56.120003 
L 156.657538 -56.499435 
L 157.983762 -56.829754 
L 159.309987 -57.117319 
L 160.636212 -57.367662 
L 160.636212 -129.24 
L 160.636212 -129.24 
L 159.309987 -129.24 
L 157.983762 -129.24 
L 156.657538 -129.24 
L 155.331313 -129.24 
L 154.005089 -129.24 
L 152.678864 -129.24 
L 151.35264 -129.24 
L 150.026415 -129.24 
L 148.70019 -129.24 
L 147.373966 -129.24 
L 146.047741 -129.24 
L 144.721517 -129.24 
L 143.395292 -129.24 
L 142.069067 -129.24 
L 140.742843 -129.24 
L 139.416618 -129.24 
L 138.090394 -129.24 
L 136.764169 -129.24 
L 135.437945 -129.24 
L 134.11172 -129.24 
L 132.785495 -129.24 
L 131.459271 -129.24 
L 130.133046 -129.24 
L 128.806822 -129.24 
L 127.480597 -129.24 
L 126.154373 -129.24 
L 124.828148 -129.24 
L 123.501923 -129.24 
L 122.175699 -129.24 
L 120.849474 -129.24 
L 119.52325 -129.24 
L 118.197025 -129.24 
L 116.870801 -129.24 
L 115.544576 -129.24 
L 114.218351 -129.24 
L 112.892127 -129.24 
L 111.565902 -129.24 
L 110.239678 -129.24 
L 108.913453 -129.24 
L 107.587229 -129.24 
L 106.261004 -129.24 
L 104.934779 -129.24 
L 103.608555 -129.24 
L 102.28233 -129.24 
L 100.956106 -129.24 
L 99.629881 -129.24 
L 98.303657 -129.24 
L 96.977432 -129.24 
L 95.651207 -129.24 
L 94.324983 -129.24 
L 92.998758 -129.24 
L 91.672534 -129.24 
L 90.346309 -129.24 
L 89.020085 -129.24 
L 87.69386 -129.24 
L 86.367635 -129.24 
L 85.041411 -129.24 
L 83.715186 -129.24 
L 82.388962 -129.24 
L 81.062737 -129.24 
L 79.736513 -129.24 
L 78.410288 -129.24 
L 77.084063 -129.24 
L 75.757839 -129.24 
L 74.431614 -129.24 
L 73.10539 -129.24 
L 71.779165 -129.24 
L 70.452941 -129.24 
L 69.126716 -129.24 
L 67.800491 -129.24 
L 66.474267 -129.24 
L 65.148042 -129.24 
L 63.821818 -129.24 
L 62.495593 -129.24 
L 61.169369 -129.24 
L 59.843144 -129.24 
L 58.516919 -129.24 
L 57.190695 -129.24 
L 55.86447 -129.24 
L 54.538246 -129.24 
L 53.212021 -129.24 
L 51.885797 -129.24 
L 50.559572 -129.24 
L 49.233347 -129.24 
L 47.907123 -129.24 
L 46.580898 -129.24 
L 45.254674 -129.24 
L 43.928449 -129.24 
L 42.602225 -129.24 
L 41.276 -129.24 
z
" style="stroke: #808080; stroke-opacity: 0.5"/>
    </defs>
    <g clip-path="url(#pc1661be3d1)">
     <use xlink:href="#m814d8f6f3b" x="0" y="144" style="fill: #808080; fill-opacity: 0.5; stroke: #808080; stroke-opacity: 0.5"/>
    </g>
   </g>
   <g id="PolyCollection_2">
    <defs>
     <path id="m9277d80426" d="M 41.276 -30.976 
L 41.276 -37.803043 
L 42.602225 -40.553347 
L 43.928449 -42.947662 
L 45.254674 -45.032067 
L 46.580898 -46.846676 
L 47.907123 -48.426409 
L 49.233347 -49.801667 
L 50.559572 -50.998918 
L 51.885797 -52.041202 
L 53.212021 -52.948577 
L 54.538246 -34.268816 
L 55.86447 -37.476575 
L 57.190695 -40.269136 
L 58.516919 -42.700238 
L 59.843144 -44.816669 
L 61.169369 -46.659157 
L 62.495593 -48.263162 
L 63.821818 -49.659551 
L 65.148042 -50.875197 
L 66.474267 -51.933494 
L 67.800491 -52.85481 
L 69.126716 -53.656875 
L 70.452941 -54.355124 
L 71.779165 -54.962994 
L 73.10539 -55.492184 
L 74.431614 -33.74814 
L 75.757839 -37.023293 
L 77.084063 -39.874524 
L 78.410288 -42.356704 
L 79.736513 -44.5176 
L 81.062737 -46.398799 
L 82.388962 -48.036503 
L 83.715186 -49.46223 
L 85.041411 -50.703416 
L 86.367635 -51.783948 
L 87.69386 -52.724621 
L 89.020085 -53.543537 
L 90.346309 -54.256456 
L 91.672534 -54.877097 
L 92.998758 -55.417406 
L 94.324983 -55.887778 
L 95.651207 -56.297268 
L 96.977432 -56.653755 
L 98.303657 -56.9641 
L 99.629881 -57.234276 
L 100.956106 -57.46948 
L 102.28233 -57.674241 
L 103.608555 -57.852499 
L 104.934779 -58.007683 
L 106.261004 -58.142781 
L 107.587229 -32.855923 
L 108.913453 -36.246562 
L 110.239678 -39.19833 
L 111.565902 -41.768033 
L 112.892127 -44.005124 
L 114.218351 -45.952656 
L 115.544576 -47.648107 
L 116.870801 -49.124106 
L 118.197025 -50.409058 
L 119.52325 -51.527691 
L 120.849474 -52.501532 
L 122.175699 -53.349324 
L 123.501923 -54.087381 
L 124.828148 -54.729907 
L 126.154373 -55.289267 
L 127.480597 -55.776225 
L 128.806822 -56.200154 
L 130.133046 -56.569211 
L 131.459271 -56.890499 
L 132.785495 -57.170201 
L 134.11172 -32.119551 
L 135.437945 -35.605503 
L 136.764169 -38.640247 
L 138.090394 -41.282186 
L 139.416618 -43.582163 
L 140.742843 -45.584441 
L 142.069067 -47.327553 
L 143.395292 -48.845043 
L 144.721517 -50.166115 
L 146.047741 -51.316194 
L 147.373966 -52.317411 
L 148.70019 -53.189034 
L 150.026415 -53.947838 
L 151.35264 -54.608426 
L 152.678864 -55.18351 
L 154.005089 -55.684157 
L 155.331313 -56.120003 
L 156.657538 -56.499435 
L 157.983762 -56.829754 
L 159.309987 -57.117319 
L 160.636212 -57.367662 
L 160.636212 -30.976 
L 160.636212 -30.976 
L 159.309987 -30.976 
L 157.983762 -30.976 
L 156.657538 -30.976 
L 155.331313 -30.976 
L 154.005089 -30.976 
L 152.678864 -30.976 
L 151.35264 -30.976 
L 150.026415 -30.976 
L 148.70019 -30.976 
L 147.373966 -30.976 
L 146.047741 -30.976 
L 144.721517 -30.976 
L 143.395292 -30.976 
L 142.069067 -30.976 
L 140.742843 -30.976 
L 139.416618 -30.976 
L 138.090394 -30.976 
L 136.764169 -30.976 
L 135.437945 -30.976 
L 134.11172 -30.976 
L 132.785495 -30.976 
L 131.459271 -30.976 
L 130.133046 -30.976 
L 128.806822 -30.976 
L 127.480597 -30.976 
L 126.154373 -30.976 
L 124.828148 -30.976 
L 123.501923 -30.976 
L 122.175699 -30.976 
L 120.849474 -30.976 
L 119.52325 -30.976 
L 118.197025 -30.976 
L 116.870801 -30.976 
L 115.544576 -30.976 
L 114.218351 -30.976 
L 112.892127 -30.976 
L 111.565902 -30.976 
L 110.239678 -30.976 
L 108.913453 -30.976 
L 107.587229 -30.976 
L 106.261004 -30.976 
L 104.934779 -30.976 
L 103.608555 -30.976 
L 102.28233 -30.976 
L 100.956106 -30.976 
L 99.629881 -30.976 
L 98.303657 -30.976 
L 96.977432 -30.976 
L 95.651207 -30.976 
L 94.324983 -30.976 
L 92.998758 -30.976 
L 91.672534 -30.976 
L 90.346309 -30.976 
L 89.020085 -30.976 
L 87.69386 -30.976 
L 86.367635 -30.976 
L 85.041411 -30.976 
L 83.715186 -30.976 
L 82.388962 -30.976 
L 81.062737 -30.976 
L 79.736513 -30.976 
L 78.410288 -30.976 
L 77.084063 -30.976 
L 75.757839 -30.976 
L 74.431614 -30.976 
L 73.10539 -30.976 
L 71.779165 -30.976 
L 70.452941 -30.976 
L 69.126716 -30.976 
L 67.800491 -30.976 
L 66.474267 -30.976 
L 65.148042 -30.976 
L 63.821818 -30.976 
L 62.495593 -30.976 
L 61.169369 -30.976 
L 59.843144 -30.976 
L 58.516919 -30.976 
L 57.190695 -30.976 
L 55.86447 -30.976 
L 54.538246 -30.976 
L 53.212021 -30.976 
L 51.885797 -30.976 
L 50.559572 -30.976 
L 49.233347 -30.976 
L 47.907123 -30.976 
L 46.580898 -30.976 
L 45.254674 -30.976 
L 43.928449 -30.976 
L 42.602225 -30.976 
L 41.276 -30.976 
z
" style="stroke: #008000; stroke-opacity: 0.5"/>
    </defs>
    <g clip-path="url(#pc1661be3d1)">
     <use xlink:href="#m9277d80426" x="0" y="144" style="fill: #008000; fill-opacity: 0.5; stroke: #008000; stroke-opacity: 0.5"/>
    </g>
   </g>
   <g id="PathCollection_1">
    <defs>
     <path id="m590235dd1b" d="M -2.5 5 
L 0 2.5 
L 2.5 5 
L 5 2.5 
L 2.5 0 
L 5 -2.5 
L 2.5 -5 
L 0 -2.5 
L -2.5 -5 
L -5 -2.5 
L -2.5 0 
L -5 2.5 
z
" style="stroke: #ff0000"/>
    </defs>
    <g clip-path="url(#pc1661be3d1)">
     <use xlink:href="#m590235dd1b" x="160.636212" y="86.632338" style="fill: #ff0000; stroke: #ff0000"/>
    </g>
   </g>
   <g id="matplotlib.axis_1"/>
   <g id="matplotlib.axis_2">
    <g id="ytick_1">
     <g id="line2d_1">
      <defs>
       <path id="m67829890d0" d="M 0 0 
L -3.5 0 
" style="stroke: #000000; stroke-width: 0.8"/>
      </defs>
      <g>
       <use xlink:href="#m67829890d0" x="41.276" y="113.024" style="stroke: #000000; stroke-width: 0.8"/>
      </g>
     </g>
     <g id="text_1">
      <text style="font: 10px 'Arial'; text-anchor: end" x="34.276" y="116.602906" transform="rotate(-0 34.276 116.602906)">0</text>
     </g>
    </g>
    <g id="ytick_2">
     <g id="line2d_2">
      <g>
       <use xlink:href="#m67829890d0" x="41.276" y="14.76" style="stroke: #000000; stroke-width: 0.8"/>
      </g>
     </g>
     <g id="text_2">
      <text style="font: 10px 'Arial'; text-anchor: end" x="34.276" y="18.338906" transform="rotate(-0 34.276 18.338906)">1</text>
     </g>
    </g>
    <g id="text_3">
     <!-- $P(a_{ij}(t) = 1 | a_{ij}(0) = 0)$ -->
     <g transform="translate(21.615063 114.392) rotate(-90)">
      <text>
       <tspan style="font: oblique 10px 'DejaVu Sans'" x="0 9.931641 24.124023 53.953125" y="-0.359375">Pata</tspan>
       <tspan style="font: 10px 'DejaVu Sans'" x="6.030273 20.222656 28.044922 33.894531 44.22168 50.583984 64.244141 68.145508 74.507812 80.357422 90.68457 97.046875" y="-0.359375">(()=1|(0)=0)</tspan>
       <tspan style="font: oblique 7px 'DejaVu Sans'" x="16.05957 18.004395 60.081055 62.025879" y="1.28125">ijij</tspan>
      </text>
     </g>
    </g>
   </g>
   <g id="line2d_3">
    <path d="M 41.276 106.196957 
L 42.602225 103.446653 
L 43.928449 101.052338 
L 45.254674 98.967933 
L 46.580898 97.153324 
L 47.907123 95.573591 
L 49.233347 94.198333 
L 50.559572 93.001082 
L 51.885797 91.958798 
L 53.212021 91.051423 
L 54.538246 109.731184 
L 55.86447 106.523425 
L 57.190695 103.730864 
L 58.516919 101.299762 
L 59.843144 99.183331 
L 61.169369 97.340843 
L 62.495593 95.736838 
L 63.821818 94.340449 
L 65.148042 93.124803 
L 66.474267 92.066506 
L 67.800491 91.14519 
L 69.126716 90.343125 
L 70.452941 89.644876 
L 71.779165 89.037006 
L 73.10539 88.507816 
L 74.431614 110.25186 
L 75.757839 106.976707 
L 77.084063 104.125476 
L 78.410288 101.643296 
L 79.736513 99.4824 
L 81.062737 97.601201 
L 82.388962 95.963497 
L 83.715186 94.53777 
L 85.041411 93.296584 
L 86.367635 92.216052 
L 87.69386 91.275379 
L 89.020085 90.456463 
L 90.346309 89.743544 
L 91.672534 89.122903 
L 92.998758 88.582594 
L 94.324983 88.112222 
L 95.651207 87.702732 
L 96.977432 87.346245 
L 98.303657 87.0359 
L 99.629881 86.765724 
L 100.956106 86.53052 
L 102.28233 86.325759 
L 103.608555 86.147501 
L 104.934779 85.992317 
L 106.261004 85.857219 
L 107.587229 111.144077 
L 108.913453 107.753438 
L 110.239678 104.80167 
L 111.565902 102.231967 
L 112.892127 99.994876 
L 114.218351 98.047344 
L 115.544576 96.351893 
L 116.870801 94.875894 
L 118.197025 93.590942 
L 119.52325 92.472309 
L 120.849474 91.498468 
L 122.175699 90.650676 
L 123.501923 89.912619 
L 124.828148 89.270093 
L 126.154373 88.710733 
L 127.480597 88.223775 
L 128.806822 87.799846 
L 130.133046 87.430789 
L 131.459271 87.109501 
L 132.785495 86.829799 
L 134.11172 111.880449 
L 135.437945 108.394497 
L 136.764169 105.359753 
L 138.090394 102.717814 
L 139.416618 100.417837 
L 140.742843 98.415559 
L 142.069067 96.672447 
L 143.395292 95.154957 
L 144.721517 93.833885 
L 146.047741 92.683806 
L 147.373966 91.682589 
L 148.70019 90.810966 
L 150.026415 90.052162 
L 151.35264 89.391574 
L 152.678864 88.81649 
L 154.005089 88.315843 
L 155.331313 87.879997 
L 156.657538 87.500565 
L 157.983762 87.170246 
L 159.309987 86.882681 
L 160.636212 86.632338 
" clip-path="url(#pc1661be3d1)" style="fill: none; stroke: #008000; stroke-width: 3; stroke-linecap: square"/>
   </g>
   <g id="line2d_4">
    <path d="M 39.949775 113.024 
L 39.949775 14.76 
" clip-path="url(#pc1661be3d1)" style="fill: none; stroke-dasharray: 5.55,2.4; stroke-dashoffset: 0; stroke: #ff0000; stroke-width: 1.5"/>
   </g>
   <g id="line2d_5">
    <path d="M 54.538246 113.024 
L 54.538246 14.76 
" clip-path="url(#pc1661be3d1)" style="fill: none; stroke-dasharray: 5.55,2.4; stroke-dashoffset: 0; stroke: #ff0000; stroke-width: 1.5"/>
   </g>
   <g id="line2d_6">
    <path d="M 74.431614 113.024 
L 74.431614 14.76 
" clip-path="url(#pc1661be3d1)" style="fill: none; stroke-dasharray: 5.55,2.4; stroke-dashoffset: 0; stroke: #ff0000; stroke-width: 1.5"/>
   </g>
   <g id="line2d_7">
    <path d="M 107.587229 113.024 
L 107.587229 14.76 
" clip-path="url(#pc1661be3d1)" style="fill: none; stroke-dasharray: 5.55,2.4; stroke-dashoffset: 0; stroke: #ff0000; stroke-width: 1.5"/>
   </g>
   <g id="line2d_8">
    <path d="M 134.11172 113.024 
L 134.11172 14.76 
" clip-path="url(#pc1661be3d1)" style="fill: none; stroke-dasharray: 5.55,2.4; stroke-dashoffset: 0; stroke: #ff0000; stroke-width: 1.5"/>
   </g>
   <g id="line2d_9">
    <path d="M 160.636212 113.024 
L 160.636212 14.76 
" clip-path="url(#pc1661be3d1)" style="fill: none; stroke-dasharray: 5.55,2.4; stroke-dashoffset: 0; stroke: #000000; stroke-width: 1.5"/>
   </g>
   <g id="line2d_10">
    <path d="M 41.276 84.948571 
L 173.898457 84.948571 
" clip-path="url(#pc1661be3d1)" style="fill: none; stroke-dasharray: 5.55,2.4; stroke-dashoffset: 0; stroke: #0000ff; stroke-width: 1.5"/>
   </g>
   <g id="patch_3">
    <path d="M 41.276 113.024 
L 41.276 14.76 
" style="fill: none; stroke: #000000; stroke-width: 0.8; stroke-linejoin: miter; stroke-linecap: square"/>
   </g>
   <g id="patch_4">
    <path d="M 41.276 113.024 
L 173.898457 113.024 
" style="fill: none; stroke: #000000; stroke-width: 0.8; stroke-linejoin: miter; stroke-linecap: square"/>
   </g>
   <g id="text_4">
    <!-- $\}$ -->
    <g transform="translate(39.62625 113.22625) rotate(-270)">
     <text>
      <tspan style="font: 11px 'DejaVu Sans'" x="0" y="-0.640625">}</tspan>
     </text>
    </g>
   </g>
   <g id="text_5">
    <!-- $\tau_1$ -->
    <g transform="translate(41.184 133.92)">
     <text>
      <tspan style="font: oblique 10px 'DejaVu Sans'" x="0" y="-0.53125">τ</tspan>
      <tspan style="font: 7px 'DejaVu Sans'" x="6.020508" y="1.109375">1</tspan>
     </text>
    </g>
   </g>
   <g id="text_6">
    <!-- $\}$ -->
    <g transform="translate(58.34625 113.22625) rotate(-270)">
     <text>
      <tspan style="font: 11px 'DejaVu Sans'" x="0" y="-0.640625">}</tspan>
     </text>
    </g>
   </g>
   <g id="text_7">
    <!-- $\tau_2$ -->
    <g transform="translate(59.904 133.92)">
     <text>
      <tspan style="font: oblique 10px 'DejaVu Sans'" x="0" y="-0.53125">τ</tspan>
      <tspan style="font: 7px 'DejaVu Sans'" x="6.020508" y="1.109375">2</tspan>
     </text>
    </g>
   </g>
   <g id="text_8">
    <!-- $\}$ -->
    <g transform="translate(84.55425 113.22625) rotate(-270)">
     <text>
      <tspan style="font: 11px 'DejaVu Sans'" x="0" y="-0.640625">}</tspan>
     </text>
    </g>
   </g>
   <g id="text_9">
    <!-- $\tau_3$ -->
    <g transform="translate(86.112 133.92)">
     <text>
      <tspan style="font: oblique 10px 'DejaVu Sans'" x="0" y="-0.53125">τ</tspan>
      <tspan style="font: 7px 'DejaVu Sans'" x="6.020508" y="1.109375">3</tspan>
     </text>
    </g>
   </g>
   <g id="text_10">
    <!-- $\}$ -->
    <g transform="translate(116.37825 113.22625) rotate(-270)">
     <text>
      <tspan style="font: 11px 'DejaVu Sans'" x="0" y="-0.640625">}</tspan>
     </text>
    </g>
   </g>
   <g id="text_11">
    <!-- $\tau_4$ -->
    <g transform="translate(117.936 133.92)">
     <text>
      <tspan style="font: oblique 10px 'DejaVu Sans'" x="0" y="-0.53125">τ</tspan>
      <tspan style="font: 7px 'DejaVu Sans'" x="6.020508" y="1.109375">4</tspan>
     </text>
    </g>
   </g>
   <g id="text_12">
    <!-- $\}$ -->
    <g transform="translate(144.45825 113.22625) rotate(-270)">
     <text>
      <tspan style="font: 11px 'DejaVu Sans'" x="0" y="-0.640625">}</tspan>
     </text>
    </g>
   </g>
   <g id="text_13">
    <!-- $\tau_5$ -->
    <g transform="translate(146.016 133.92)">
     <text>
      <tspan style="font: oblique 10px 'DejaVu Sans'" x="0" y="-0.53125">τ</tspan>
      <tspan style="font: 7px 'DejaVu Sans'" x="6.020508" y="1.109375">5</tspan>
     </text>
    </g>
   </g>
   <g id="text_14">
    <!-- $\}$ -->
    <g transform="translate(161.3664 105.12)">
     <text>
      <tspan style="font: 20px 'DejaVu Sans'" x="0" y="-0.796875">}</tspan>
     </text>
    </g>
   </g>
   <g id="text_15">
    <!-- $c_{ij}$ -->
    <g transform="translate(172.224 102.24)">
     <text>
      <tspan style="font: oblique 10px 'DejaVu Sans'" x="0" y="-0.40625">c</tspan>
      <tspan style="font: oblique 7px 'DejaVu Sans'" x="5.498047 7.442871" y="1.234375">ij</tspan>
     </text>
    </g>
   </g>
   <g id="text_16">
    <g id="patch_5">
     <path d="M -3.116111 -30.0425 
L 5.550139 -30.0425 
L 5.550139 -41 
L -3.116111 -41 
z
" style="fill: #ffffff; stroke: #ffffff; stroke-linejoin: miter"/>
    </g>
    <text style="font: 700 12px 'Arial'; text-anchor: start" x="-3.116111" y="-32.410625" transform="rotate(-0 -3.116111 -32.410625)">C</text>
   </g>
  </g>
  <g id="axes_2">
   <g id="patch_6">
    <path d="M 223.273226 113.024 
L 355.895684 113.024 
L 355.895684 14.76 
L 223.273226 14.76 
z
" style="fill: #ffffff"/>
   </g>
   <g id="PolyCollection_3">
    <defs>
     <path id="m4c24898f6c" d="M 223.273226 -129.24 
L 223.273226 -54.870652 
L 224.599451 -64.496714 
L 225.925676 -72.876818 
L 227.2519 -80.172236 
L 228.578125 -86.523365 
L 229.904349 -92.05243 
L 231.230574 -96.865836 
L 232.556798 -101.056214 
L 233.883023 -104.704207 
L 235.209248 -107.880019 
L 236.535472 -42.500857 
L 237.861697 -53.728014 
L 239.187921 -63.501974 
L 240.514146 -72.010833 
L 241.84037 -79.418341 
L 243.166595 -85.867051 
L 244.49282 -91.481067 
L 245.819044 -96.368427 
L 247.145269 -100.623188 
L 248.471493 -104.32723 
L 249.797718 -107.551837 
L 251.123942 -110.359063 
L 252.450167 -112.802934 
L 253.776392 -114.93048 
L 255.102616 -116.782645 
L 256.428841 -40.67849 
L 257.755065 -52.141527 
L 259.08129 -62.120835 
L 260.407514 -70.808463 
L 261.733739 -78.371601 
L 263.059964 -84.955797 
L 264.386188 -90.687761 
L 265.712413 -95.677804 
L 267.038637 -100.021956 
L 268.364862 -103.80382 
L 269.691086 -107.096174 
L 271.017311 -109.96238 
L 272.343536 -112.457595 
L 273.66976 -114.629841 
L 274.995985 -116.520919 
L 276.322209 -118.167225 
L 277.648434 -119.600439 
L 278.974658 -120.848144 
L 280.300883 -121.934351 
L 281.627108 -122.879964 
L 282.953332 -123.703181 
L 284.279557 -124.419844 
L 285.605781 -125.043745 
L 286.932006 -125.586891 
L 288.25823 -126.059735 
L 289.584455 -37.555732 
L 290.91068 -49.422966 
L 292.236904 -59.754154 
L 293.563129 -68.748115 
L 294.889353 -76.577935 
L 296.215578 -83.394296 
L 297.541802 -89.328375 
L 298.868027 -94.494371 
L 300.194252 -98.991702 
L 301.520476 -102.906917 
L 302.846701 -106.315363 
L 304.172925 -109.282633 
L 305.49915 -111.865833 
L 306.825374 -114.114673 
L 308.151599 -116.072433 
L 309.477824 -117.776789 
L 310.804048 -119.26054 
L 312.130273 -120.55224 
L 313.456497 -121.676748 
L 314.782722 -122.655704 
L 316.108946 -34.97843 
L 317.435171 -47.179259 
L 318.761396 -57.800863 
L 320.08762 -67.047651 
L 321.413845 -75.097572 
L 322.740069 -82.105545 
L 324.066294 -88.206434 
L 325.392518 -93.51765 
L 326.718743 -98.141404 
L 328.044968 -102.166678 
L 329.371192 -105.670937 
L 330.697417 -108.721619 
L 332.023641 -111.377434 
L 333.349866 -113.689491 
L 334.67609 -115.702285 
L 336.002315 -117.454551 
L 337.32854 -118.980011 
L 338.654764 -120.308021 
L 339.980989 -121.46414 
L 341.307213 -122.470615 
L 342.633438 -123.346816 
L 342.633438 -129.24 
L 342.633438 -129.24 
L 341.307213 -129.24 
L 339.980989 -129.24 
L 338.654764 -129.24 
L 337.32854 -129.24 
L 336.002315 -129.24 
L 334.67609 -129.24 
L 333.349866 -129.24 
L 332.023641 -129.24 
L 330.697417 -129.24 
L 329.371192 -129.24 
L 328.044968 -129.24 
L 326.718743 -129.24 
L 325.392518 -129.24 
L 324.066294 -129.24 
L 322.740069 -129.24 
L 321.413845 -129.24 
L 320.08762 -129.24 
L 318.761396 -129.24 
L 317.435171 -129.24 
L 316.108946 -129.24 
L 314.782722 -129.24 
L 313.456497 -129.24 
L 312.130273 -129.24 
L 310.804048 -129.24 
L 309.477824 -129.24 
L 308.151599 -129.24 
L 306.825374 -129.24 
L 305.49915 -129.24 
L 304.172925 -129.24 
L 302.846701 -129.24 
L 301.520476 -129.24 
L 300.194252 -129.24 
L 298.868027 -129.24 
L 297.541802 -129.24 
L 296.215578 -129.24 
L 294.889353 -129.24 
L 293.563129 -129.24 
L 292.236904 -129.24 
L 290.91068 -129.24 
L 289.584455 -129.24 
L 288.25823 -129.24 
L 286.932006 -129.24 
L 285.605781 -129.24 
L 284.279557 -129.24 
L 282.953332 -129.24 
L 281.627108 -129.24 
L 280.300883 -129.24 
L 278.974658 -129.24 
L 277.648434 -129.24 
L 276.322209 -129.24 
L 274.995985 -129.24 
L 273.66976 -129.24 
L 272.343536 -129.24 
L 271.017311 -129.24 
L 269.691086 -129.24 
L 268.364862 -129.24 
L 267.038637 -129.24 
L 265.712413 -129.24 
L 264.386188 -129.24 
L 263.059964 -129.24 
L 261.733739 -129.24 
L 260.407514 -129.24 
L 259.08129 -129.24 
L 257.755065 -129.24 
L 256.428841 -129.24 
L 255.102616 -129.24 
L 253.776392 -129.24 
L 252.450167 -129.24 
L 251.123942 -129.24 
L 249.797718 -129.24 
L 248.471493 -129.24 
L 247.145269 -129.24 
L 245.819044 -129.24 
L 244.49282 -129.24 
L 243.166595 -129.24 
L 241.84037 -129.24 
L 240.514146 -129.24 
L 239.187921 -129.24 
L 237.861697 -129.24 
L 236.535472 -129.24 
L 235.209248 -129.24 
L 233.883023 -129.24 
L 232.556798 -129.24 
L 231.230574 -129.24 
L 229.904349 -129.24 
L 228.578125 -129.24 
L 227.2519 -129.24 
L 225.925676 -129.24 
L 224.599451 -129.24 
L 223.273226 -129.24 
z
" style="stroke: #808080; stroke-opacity: 0.5"/>
    </defs>
    <g clip-path="url(#p90dc77f0ea)">
     <use xlink:href="#m4c24898f6c" x="0" y="144" style="fill: #808080; fill-opacity: 0.5; stroke: #808080; stroke-opacity: 0.5"/>
    </g>
   </g>
   <g id="PolyCollection_4">
    <defs>
     <path id="m83138fccfc" d="M 223.273226 -30.976 
L 223.273226 -54.870652 
L 224.599451 -64.496714 
L 225.925676 -72.876818 
L 227.2519 -80.172236 
L 228.578125 -86.523365 
L 229.904349 -92.05243 
L 231.230574 -96.865836 
L 232.556798 -101.056214 
L 233.883023 -104.704207 
L 235.209248 -107.880019 
L 236.535472 -42.500857 
L 237.861697 -53.728014 
L 239.187921 -63.501974 
L 240.514146 -72.010833 
L 241.84037 -79.418341 
L 243.166595 -85.867051 
L 244.49282 -91.481067 
L 245.819044 -96.368427 
L 247.145269 -100.623188 
L 248.471493 -104.32723 
L 249.797718 -107.551837 
L 251.123942 -110.359063 
L 252.450167 -112.802934 
L 253.776392 -114.93048 
L 255.102616 -116.782645 
L 256.428841 -40.67849 
L 257.755065 -52.141527 
L 259.08129 -62.120835 
L 260.407514 -70.808463 
L 261.733739 -78.371601 
L 263.059964 -84.955797 
L 264.386188 -90.687761 
L 265.712413 -95.677804 
L 267.038637 -100.021956 
L 268.364862 -103.80382 
L 269.691086 -107.096174 
L 271.017311 -109.96238 
L 272.343536 -112.457595 
L 273.66976 -114.629841 
L 274.995985 -116.520919 
L 276.322209 -118.167225 
L 277.648434 -119.600439 
L 278.974658 -120.848144 
L 280.300883 -121.934351 
L 281.627108 -122.879964 
L 282.953332 -123.703181 
L 284.279557 -124.419844 
L 285.605781 -125.043745 
L 286.932006 -125.586891 
L 288.25823 -126.059735 
L 289.584455 -37.555732 
L 290.91068 -49.422966 
L 292.236904 -59.754154 
L 293.563129 -68.748115 
L 294.889353 -76.577935 
L 296.215578 -83.394296 
L 297.541802 -89.328375 
L 298.868027 -94.494371 
L 300.194252 -98.991702 
L 301.520476 -102.906917 
L 302.846701 -106.315363 
L 304.172925 -109.282633 
L 305.49915 -111.865833 
L 306.825374 -114.114673 
L 308.151599 -116.072433 
L 309.477824 -117.776789 
L 310.804048 -119.26054 
L 312.130273 -120.55224 
L 313.456497 -121.676748 
L 314.782722 -122.655704 
L 316.108946 -34.97843 
L 317.435171 -47.179259 
L 318.761396 -57.800863 
L 320.08762 -67.047651 
L 321.413845 -75.097572 
L 322.740069 -82.105545 
L 324.066294 -88.206434 
L 325.392518 -93.51765 
L 326.718743 -98.141404 
L 328.044968 -102.166678 
L 329.371192 -105.670937 
L 330.697417 -108.721619 
L 332.023641 -111.377434 
L 333.349866 -113.689491 
L 334.67609 -115.702285 
L 336.002315 -117.454551 
L 337.32854 -118.980011 
L 338.654764 -120.308021 
L 339.980989 -121.46414 
L 341.307213 -122.470615 
L 342.633438 -123.346816 
L 342.633438 -30.976 
L 342.633438 -30.976 
L 341.307213 -30.976 
L 339.980989 -30.976 
L 338.654764 -30.976 
L 337.32854 -30.976 
L 336.002315 -30.976 
L 334.67609 -30.976 
L 333.349866 -30.976 
L 332.023641 -30.976 
L 330.697417 -30.976 
L 329.371192 -30.976 
L 328.044968 -30.976 
L 326.718743 -30.976 
L 325.392518 -30.976 
L 324.066294 -30.976 
L 322.740069 -30.976 
L 321.413845 -30.976 
L 320.08762 -30.976 
L 318.761396 -30.976 
L 317.435171 -30.976 
L 316.108946 -30.976 
L 314.782722 -30.976 
L 313.456497 -30.976 
L 312.130273 -30.976 
L 310.804048 -30.976 
L 309.477824 -30.976 
L 308.151599 -30.976 
L 306.825374 -30.976 
L 305.49915 -30.976 
L 304.172925 -30.976 
L 302.846701 -30.976 
L 301.520476 -30.976 
L 300.194252 -30.976 
L 298.868027 -30.976 
L 297.541802 -30.976 
L 296.215578 -30.976 
L 294.889353 -30.976 
L 293.563129 -30.976 
L 292.236904 -30.976 
L 290.91068 -30.976 
L 289.584455 -30.976 
L 288.25823 -30.976 
L 286.932006 -30.976 
L 285.605781 -30.976 
L 284.279557 -30.976 
L 282.953332 -30.976 
L 281.627108 -30.976 
L 280.300883 -30.976 
L 278.974658 -30.976 
L 277.648434 -30.976 
L 276.322209 -30.976 
L 274.995985 -30.976 
L 273.66976 -30.976 
L 272.343536 -30.976 
L 271.017311 -30.976 
L 269.691086 -30.976 
L 268.364862 -30.976 
L 267.038637 -30.976 
L 265.712413 -30.976 
L 264.386188 -30.976 
L 263.059964 -30.976 
L 261.733739 -30.976 
L 260.407514 -30.976 
L 259.08129 -30.976 
L 257.755065 -30.976 
L 256.428841 -30.976 
L 255.102616 -30.976 
L 253.776392 -30.976 
L 252.450167 -30.976 
L 251.123942 -30.976 
L 249.797718 -30.976 
L 248.471493 -30.976 
L 247.145269 -30.976 
L 245.819044 -30.976 
L 244.49282 -30.976 
L 243.166595 -30.976 
L 241.84037 -30.976 
L 240.514146 -30.976 
L 239.187921 -30.976 
L 237.861697 -30.976 
L 236.535472 -30.976 
L 235.209248 -30.976 
L 233.883023 -30.976 
L 232.556798 -30.976 
L 231.230574 -30.976 
L 229.904349 -30.976 
L 228.578125 -30.976 
L 227.2519 -30.976 
L 225.925676 -30.976 
L 224.599451 -30.976 
L 223.273226 -30.976 
z
" style="stroke: #008000; stroke-opacity: 0.5"/>
    </defs>
    <g clip-path="url(#p90dc77f0ea)">
     <use xlink:href="#m83138fccfc" x="0" y="144" style="fill: #008000; fill-opacity: 0.5; stroke: #008000; stroke-opacity: 0.5"/>
    </g>
   </g>
   <g id="PathCollection_2">
    <g clip-path="url(#p90dc77f0ea)">
     <use xlink:href="#m590235dd1b" x="342.633438" y="20.653184" style="fill: #ff0000; stroke: #ff0000"/>
    </g>
   </g>
   <g id="matplotlib.axis_3">
    <g id="xtick_1">
     <g id="line2d_11">
      <defs>
       <path id="m257baee2d9" d="M 0 0 
L 0 3.5 
" style="stroke: #000000; stroke-width: 0.8"/>
      </defs>
      <g>
       <use xlink:href="#m257baee2d9" x="223.273226" y="113.024" style="stroke: #000000; stroke-width: 0.8"/>
      </g>
     </g>
     <g id="text_17">
      <text style="font: 10px 'Arial'; text-anchor: middle" x="223.273226" y="127.181812" transform="rotate(-0 223.273226 127.181812)">0</text>
     </g>
    </g>
    <g id="xtick_2">
     <g id="line2d_12">
      <g>
       <use xlink:href="#m257baee2d9" x="342.633438" y="113.024" style="stroke: #000000; stroke-width: 0.8"/>
      </g>
     </g>
     <g id="text_18">
      <!-- $\Delta_{ij}$ -->
      <g transform="translate(337.083438 127.324)">
       <text>
        <tspan style="font: 10px 'DejaVu Sans'" x="0" y="-0.703125">Δ</tspan>
        <tspan style="font: oblique 7px 'DejaVu Sans'" x="6.936523 8.881348" y="0.9375">ij</tspan>
       </text>
      </g>
     </g>
    </g>
   </g>
   <g id="matplotlib.axis_4">
    <g id="ytick_3">
     <g id="line2d_13">
      <g>
       <use xlink:href="#m67829890d0" x="223.273226" y="113.024" style="stroke: #000000; stroke-width: 0.8"/>
      </g>
     </g>
     <g id="text_19">
      <text style="font: 10px 'Arial'; text-anchor: end" x="216.273226" y="116.602906" transform="rotate(-0 216.273226 116.602906)">0</text>
     </g>
    </g>
    <g id="ytick_4">
     <g id="line2d_14">
      <g>
       <use xlink:href="#m67829890d0" x="223.273226" y="14.76" style="stroke: #000000; stroke-width: 0.8"/>
      </g>
     </g>
     <g id="text_20">
      <text style="font: 10px 'Arial'; text-anchor: end" x="216.273226" y="18.338906" transform="rotate(-0 216.273226 18.338906)">1</text>
     </g>
    </g>
    <g id="text_21">
     <!-- $P(a_{ij}(t) = 1 | a_{ij}(0) = 0)\cdot c_{ij}^{-1}$ -->
     <g transform="translate(202.512289 126.192) rotate(-90)">
      <text>
       <tspan style="font: oblique 10px 'DejaVu Sans'" x="0 9.931641 24.124023 53.953125 108.023438" y="-0.06093750000000142">Patac</tspan>
       <tspan style="font: 10px 'DejaVu Sans'" x="6.030273 20.222656 28.044922 33.894531 44.22168 50.583984 64.244141 68.145508 74.507812 80.357422 90.68457 97.046875 102.896484" y="-0.06093750000000142">(()=1|(0)=0)⋅</tspan>
       <tspan style="font: oblique 7px 'DejaVu Sans'" x="16.05957 18.004395 60.081055 62.025879 113.521484 115.466309" y="1.5796874999999986 1.5796874999999986 1.5796874999999986 1.5796874999999986 2.6734374999999986 2.6734374999999986">ijijij</tspan>
       <tspan style="font: 7px 'DejaVu Sans'" x="113.985599 119.850833" y="-3.8921875000000004">−1</tspan>
      </text>
     </g>
    </g>
   </g>
   <g id="line2d_15">
    <path d="M 223.273226 89.129348 
L 224.599451 79.503286 
L 225.925676 71.123182 
L 227.2519 63.827764 
L 228.578125 57.476635 
L 229.904349 51.94757 
L 231.230574 47.134164 
L 232.556798 42.943786 
L 233.883023 39.295793 
L 235.209248 36.119981 
L 236.535472 101.499143 
L 237.861697 90.271986 
L 239.187921 80.498026 
L 240.514146 71.989167 
L 241.84037 64.581659 
L 243.166595 58.132949 
L 244.49282 52.518933 
L 245.819044 47.631573 
L 247.145269 43.376812 
L 248.471493 39.67277 
L 249.797718 36.448163 
L 251.123942 33.640937 
L 252.450167 31.197066 
L 253.776392 29.06952 
L 255.102616 27.217355 
L 256.428841 103.32151 
L 257.755065 91.858473 
L 259.08129 81.879165 
L 260.407514 73.191537 
L 261.733739 65.628399 
L 263.059964 59.044203 
L 264.386188 53.312239 
L 265.712413 48.322196 
L 267.038637 43.978044 
L 268.364862 40.19618 
L 269.691086 36.903826 
L 271.017311 34.03762 
L 272.343536 31.542405 
L 273.66976 29.370159 
L 274.995985 27.479081 
L 276.322209 25.832775 
L 277.648434 24.399561 
L 278.974658 23.151856 
L 280.300883 22.065649 
L 281.627108 21.120036 
L 282.953332 20.296819 
L 284.279557 19.580156 
L 285.605781 18.956255 
L 286.932006 18.413109 
L 288.25823 17.940265 
L 289.584455 106.444268 
L 290.91068 94.577034 
L 292.236904 84.245846 
L 293.563129 75.251885 
L 294.889353 67.422065 
L 296.215578 60.605704 
L 297.541802 54.671625 
L 298.868027 49.505629 
L 300.194252 45.008298 
L 301.520476 41.093083 
L 302.846701 37.684637 
L 304.172925 34.717367 
L 305.49915 32.134167 
L 306.825374 29.885327 
L 308.151599 27.927567 
L 309.477824 26.223211 
L 310.804048 24.73946 
L 312.130273 23.44776 
L 313.456497 22.323252 
L 314.782722 21.344296 
L 316.108946 109.02157 
L 317.435171 96.820741 
L 318.761396 86.199137 
L 320.08762 76.952349 
L 321.413845 68.902428 
L 322.740069 61.894455 
L 324.066294 55.793566 
L 325.392518 50.48235 
L 326.718743 45.858596 
L 328.044968 41.833322 
L 329.371192 38.329063 
L 330.697417 35.278381 
L 332.023641 32.622566 
L 333.349866 30.310509 
L 334.67609 28.297715 
L 336.002315 26.545449 
L 337.32854 25.019989 
L 338.654764 23.691979 
L 339.980989 22.53586 
L 341.307213 21.529385 
L 342.633438 20.653184 
" clip-path="url(#p90dc77f0ea)" style="fill: none; stroke: #008000; stroke-width: 3; stroke-linecap: square"/>
   </g>
   <g id="line2d_16">
    <path d="M 221.947002 113.024 
L 221.947002 14.76 
" clip-path="url(#p90dc77f0ea)" style="fill: none; stroke-dasharray: 5.55,2.4; stroke-dashoffset: 0; stroke: #808080; stroke-width: 1.5"/>
   </g>
   <g id="line2d_17">
    <path d="M 236.535472 113.024 
L 236.535472 14.76 
" clip-path="url(#p90dc77f0ea)" style="fill: none; stroke-dasharray: 5.55,2.4; stroke-dashoffset: 0; stroke: #808080; stroke-width: 1.5"/>
   </g>
   <g id="line2d_18">
    <path d="M 256.428841 113.024 
L 256.428841 14.76 
" clip-path="url(#p90dc77f0ea)" style="fill: none; stroke-dasharray: 5.55,2.4; stroke-dashoffset: 0; stroke: #808080; stroke-width: 1.5"/>
   </g>
   <g id="line2d_19">
    <path d="M 289.584455 113.024 
L 289.584455 14.76 
" clip-path="url(#p90dc77f0ea)" style="fill: none; stroke-dasharray: 5.55,2.4; stroke-dashoffset: 0; stroke: #808080; stroke-width: 1.5"/>
   </g>
   <g id="line2d_20">
    <path d="M 316.108946 113.024 
L 316.108946 14.76 
" clip-path="url(#p90dc77f0ea)" style="fill: none; stroke-dasharray: 5.55,2.4; stroke-dashoffset: 0; stroke: #ff0000; stroke-width: 1.5"/>
   </g>
   <g id="line2d_21">
    <path d="M 342.633438 113.024 
L 342.633438 14.76 
" clip-path="url(#p90dc77f0ea)" style="fill: none; stroke-dasharray: 5.55,2.4; stroke-dashoffset: 0; stroke: #000000; stroke-width: 1.5"/>
   </g>
   <g id="patch_7">
    <path d="M 223.273226 113.024 
L 223.273226 14.76 
" style="fill: none; stroke: #000000; stroke-width: 0.8; stroke-linejoin: miter; stroke-linecap: square"/>
   </g>
   <g id="patch_8">
    <path d="M 223.273226 113.024 
L 355.895684 113.024 
" style="fill: none; stroke: #000000; stroke-width: 0.8; stroke-linejoin: miter; stroke-linecap: square"/>
   </g>
   <g id="text_22">
    <!-- $\}$ -->
    <g transform="translate(309.19425 113.22625) rotate(-270)">
     <text>
      <tspan style="font: 11px 'DejaVu Sans'" x="0" y="-0.640625">}</tspan>
     </text>
    </g>
   </g>
   <g id="text_23">
    <!-- $\tau_{rejection}$ -->
    <g transform="translate(307.008 133.92)">
     <text>
      <tspan style="font: oblique 10px 'DejaVu Sans'" x="0" y="-0.53125">τ</tspan>
      <tspan style="font: oblique 7px 'DejaVu Sans'" x="6.020508 8.898438 13.205078 15.149902 19.456543 23.305176 26.049805 27.994629 32.277344" y="1.109375">rejection</tspan>
     </text>
    </g>
   </g>
  </g>
 </g>
 <defs>
  <clipPath id="pc1661be3d1">
   <rect x="41.276" y="14.76" width="132.622457" height="98.264"/>
  </clipPath>
  <clipPath id="p90dc77f0ea">
   <rect x="223.273226" y="14.76" width="132.622457" height="98.264"/>
  </clipPath>
 </defs>
</svg>
