<?xml version="1.0" encoding="utf-8" standalone="no"?>
<!DOCTYPE svg PUBLIC "-//W3C//DTD SVG 1.1//EN"
  "http://www.w3.org/Graphics/SVG/1.1/DTD/svg11.dtd">
<svg xmlns:xlink="http://www.w3.org/1999/xlink" width="540pt" height="288pt" viewBox="0 0 540 288" xmlns="http://www.w3.org/2000/svg" version="1.1">
 <metadata>
  <rdf:RDF xmlns:dc="http://purl.org/dc/elements/1.1/" xmlns:cc="http://creativecommons.org/ns#" xmlns:rdf="http://www.w3.org/1999/02/22-rdf-syntax-ns#">
   <cc:Work>
    <dc:type rdf:resource="http://purl.org/dc/dcmitype/StillImage"/>
    <dc:date>2025-04-02T12:13:16.599858</dc:date>
    <dc:format>image/svg+xml</dc:format>
    <dc:creator>
     <cc:Agent>
      <dc:title>Matplotlib v3.9.4, https://matplotlib.org/</dc:title>
     </cc:Agent>
    </dc:creator>
   </cc:Work>
  </rdf:RDF>
 </metadata>
 <defs>
  <style type="text/css">*{stroke-linejoin: round; stroke-linecap: butt}</style>
 </defs>
 <g id="figure_1">
  <g id="patch_1">
   <path d="M 0 288 
L 540 288 
L 540 0 
L 0 0 
z
" style="fill: #ffffff"/>
  </g>
  <g id="axes_1">
   <g id="patch_2">
    <path d="M 41.15 243.16 
L 251.91 243.16 
L 251.91 14.76 
L 41.15 14.76 
z
" style="fill: #ffffff"/>
   </g>
   <g id="PolyCollection_1">
    <path d="M 42.389765 239.353333 
L 42.389765 239.353333 
L 214.717059 -289.773333 
L 214.717059 224.126667 
L 214.717059 224.126667 
L 42.389765 239.353333 
z
" clip-path="url(#pde7d0efe2a)" style="fill: #ff8c00; stroke: #ff8c00"/>
   </g>
   <g id="PolyCollection_2">
    <defs>
     <path id="m33d31ee400" d="M 41.15 -44.84 
L 41.15 -48.646667 
L 227.114706 -63.873333 
L 227.114706 -44.84 
L 227.114706 -44.84 
L 41.15 -44.84 
z
" style="stroke: #228b22"/>
    </defs>
    <g clip-path="url(#pde7d0efe2a)">
     <use xlink:href="#m33d31ee400" x="0" y="288" style="fill: #228b22; stroke: #228b22"/>
    </g>
   </g>
   <g id="PolyCollection_3">
    <path d="M 103.138235 52.826667 
L 103.138235 52.826667 
L 227.114706 -327.84 
L 227.114706 243.16 
L 227.114706 243.16 
L 103.138235 52.826667 
z
" clip-path="url(#pde7d0efe2a)" style="fill: #ff6347; stroke: #ff6347"/>
   </g>
   <g id="PolyCollection_4">
    <path d="M 227.114706 243.16 
L 227.114706 -327.84 
L 289.102941 -518.173333 
L 289.102941 243.16 
L 289.102941 243.16 
L 227.114706 243.16 
z
" clip-path="url(#pde7d0efe2a)" style="fill: #ff6347; stroke: #ff6347"/>
   </g>
   <g id="matplotlib.axis_1">
    <g id="xtick_1">
     <g id="line2d_1">
      <defs>
       <path id="mbfff012b01" d="M 0 0 
L 0 3.5 
" style="stroke: #000000; stroke-width: 0.8"/>
      </defs>
      <g>
       <use xlink:href="#mbfff012b01" x="41.15" y="243.16" style="stroke: #000000; stroke-width: 0.8"/>
      </g>
     </g>
     <g id="text_1">
      <text style="font: 10px 'DejaVu Sans', 'Bitstream Vera Sans', 'Computer Modern Sans Serif', 'Lucida Grande', 'Verdana', 'Geneva', 'Lucid', 'Arial', 'Helvetica', 'Avant Garde', sans-serif; text-anchor: middle" x="41.15" y="257.758438" transform="rotate(-0 41.15 257.758438)">0</text>
     </g>
    </g>
    <g id="xtick_2">
     <g id="line2d_2">
      <g>
       <use xlink:href="#mbfff012b01" x="72.144118" y="243.16" style="stroke: #000000; stroke-width: 0.8"/>
      </g>
     </g>
     <g id="text_2">
      <text style="font: 10px 'DejaVu Sans', 'Bitstream Vera Sans', 'Computer Modern Sans Serif', 'Lucida Grande', 'Verdana', 'Geneva', 'Lucid', 'Arial', 'Helvetica', 'Avant Garde', sans-serif; text-anchor: middle" x="72.144118" y="257.758438" transform="rotate(-0 72.144118 257.758438)">2.5</text>
     </g>
    </g>
    <g id="xtick_3">
     <g id="line2d_3">
      <g>
       <use xlink:href="#mbfff012b01" x="103.138235" y="243.16" style="stroke: #000000; stroke-width: 0.8"/>
      </g>
     </g>
     <g id="text_3">
      <text style="font: 10px 'DejaVu Sans', 'Bitstream Vera Sans', 'Computer Modern Sans Serif', 'Lucida Grande', 'Verdana', 'Geneva', 'Lucid', 'Arial', 'Helvetica', 'Avant Garde', sans-serif; text-anchor: middle" x="103.138235" y="257.758438" transform="rotate(-0 103.138235 257.758438)">5</text>
     </g>
    </g>
    <g id="xtick_4">
     <g id="line2d_4">
      <g>
       <use xlink:href="#mbfff012b01" x="134.132353" y="243.16" style="stroke: #000000; stroke-width: 0.8"/>
      </g>
     </g>
     <g id="text_4">
      <text style="font: 10px 'DejaVu Sans', 'Bitstream Vera Sans', 'Computer Modern Sans Serif', 'Lucida Grande', 'Verdana', 'Geneva', 'Lucid', 'Arial', 'Helvetica', 'Avant Garde', sans-serif; text-anchor: middle" x="134.132353" y="257.758438" transform="rotate(-0 134.132353 257.758438)">7.5</text>
     </g>
    </g>
    <g id="xtick_5">
     <g id="line2d_5">
      <g>
       <use xlink:href="#mbfff012b01" x="165.126471" y="243.16" style="stroke: #000000; stroke-width: 0.8"/>
      </g>
     </g>
     <g id="text_5">
      <text style="font: 10px 'DejaVu Sans', 'Bitstream Vera Sans', 'Computer Modern Sans Serif', 'Lucida Grande', 'Verdana', 'Geneva', 'Lucid', 'Arial', 'Helvetica', 'Avant Garde', sans-serif; text-anchor: middle" x="165.126471" y="257.758438" transform="rotate(-0 165.126471 257.758438)">10</text>
     </g>
    </g>
    <g id="xtick_6">
     <g id="line2d_6">
      <g>
       <use xlink:href="#mbfff012b01" x="196.120588" y="243.16" style="stroke: #000000; stroke-width: 0.8"/>
      </g>
     </g>
     <g id="text_6">
      <text style="font: 10px 'DejaVu Sans', 'Bitstream Vera Sans', 'Computer Modern Sans Serif', 'Lucida Grande', 'Verdana', 'Geneva', 'Lucid', 'Arial', 'Helvetica', 'Avant Garde', sans-serif; text-anchor: middle" x="196.120588" y="257.758438" transform="rotate(-0 196.120588 257.758438)">12.5</text>
     </g>
    </g>
    <g id="xtick_7">
     <g id="line2d_7">
      <g>
       <use xlink:href="#mbfff012b01" x="227.114706" y="243.16" style="stroke: #000000; stroke-width: 0.8"/>
      </g>
     </g>
     <g id="text_7">
      <text style="font: 10px 'DejaVu Sans', 'Bitstream Vera Sans', 'Computer Modern Sans Serif', 'Lucida Grande', 'Verdana', 'Geneva', 'Lucid', 'Arial', 'Helvetica', 'Avant Garde', sans-serif; text-anchor: middle" x="227.114706" y="257.758438" transform="rotate(-0 227.114706 257.758438)">15</text>
     </g>
    </g>
    <g id="text_8">
     <!-- $cv_{\mathrm{on}}$ (share of population in %) -->
     <g transform="translate(77.93 271.138125)">
      <text>
       <tspan style="font: oblique 10px 'DejaVu Sans'" x="0 5.498047" y="-0.71875">cv</tspan>
       <tspan style="font: 7px 'DejaVu Sans'" x="11.416016 15.69873" y="0.921875">on</tspan>
       <tspan style="font: 10px 'Arial'" x="20.408691 23.187012 26.51709 31.51709 37.078613 42.640137 45.970215 51.531738 54.310059 59.871582 62.649902 65.428223 70.989746 76.55127 82.112793 87.674316 89.895996 95.45752 98.23584 100.45752 106.019043 111.580566 114.358887 116.580566 122.14209 124.92041 133.812012" y="-0.71875"> (share of population in %)</tspan>
      </text>
     </g>
    </g>
   </g>
   <g id="matplotlib.axis_2">
    <g id="ytick_1">
     <g id="line2d_8">
      <defs>
       <path id="m93b8d7e07f" d="M 0 0 
L -3.5 0 
" style="stroke: #000000; stroke-width: 0.8"/>
      </defs>
      <g>
       <use xlink:href="#m93b8d7e07f" x="41.15" y="243.16" style="stroke: #000000; stroke-width: 0.8"/>
      </g>
     </g>
     <g id="text_9">
      <text style="font: 10px 'DejaVu Sans', 'Bitstream Vera Sans', 'Computer Modern Sans Serif', 'Lucida Grande', 'Verdana', 'Geneva', 'Lucid', 'Arial', 'Helvetica', 'Avant Garde', sans-serif; text-anchor: end" x="34.15" y="246.959219" transform="rotate(-0 34.15 246.959219)">0</text>
     </g>
    </g>
    <g id="ytick_2">
     <g id="line2d_9">
      <g>
       <use xlink:href="#m93b8d7e07f" x="41.15" y="205.093333" style="stroke: #000000; stroke-width: 0.8"/>
      </g>
     </g>
     <g id="text_10">
      <text style="font: 10px 'DejaVu Sans', 'Bitstream Vera Sans', 'Computer Modern Sans Serif', 'Lucida Grande', 'Verdana', 'Geneva', 'Lucid', 'Arial', 'Helvetica', 'Avant Garde', sans-serif; text-anchor: end" x="34.15" y="208.892552" transform="rotate(-0 34.15 208.892552)">1</text>
     </g>
    </g>
    <g id="ytick_3">
     <g id="line2d_10">
      <g>
       <use xlink:href="#m93b8d7e07f" x="41.15" y="167.026667" style="stroke: #000000; stroke-width: 0.8"/>
      </g>
     </g>
     <g id="text_11">
      <text style="font: 10px 'DejaVu Sans', 'Bitstream Vera Sans', 'Computer Modern Sans Serif', 'Lucida Grande', 'Verdana', 'Geneva', 'Lucid', 'Arial', 'Helvetica', 'Avant Garde', sans-serif; text-anchor: end" x="34.15" y="170.825885" transform="rotate(-0 34.15 170.825885)">2</text>
     </g>
    </g>
    <g id="ytick_4">
     <g id="line2d_11">
      <g>
       <use xlink:href="#m93b8d7e07f" x="41.15" y="128.96" style="stroke: #000000; stroke-width: 0.8"/>
      </g>
     </g>
     <g id="text_12">
      <text style="font: 10px 'DejaVu Sans', 'Bitstream Vera Sans', 'Computer Modern Sans Serif', 'Lucida Grande', 'Verdana', 'Geneva', 'Lucid', 'Arial', 'Helvetica', 'Avant Garde', sans-serif; text-anchor: end" x="34.15" y="132.759219" transform="rotate(-0 34.15 132.759219)">3</text>
     </g>
    </g>
    <g id="ytick_5">
     <g id="line2d_12">
      <g>
       <use xlink:href="#m93b8d7e07f" x="41.15" y="90.893333" style="stroke: #000000; stroke-width: 0.8"/>
      </g>
     </g>
     <g id="text_13">
      <text style="font: 10px 'DejaVu Sans', 'Bitstream Vera Sans', 'Computer Modern Sans Serif', 'Lucida Grande', 'Verdana', 'Geneva', 'Lucid', 'Arial', 'Helvetica', 'Avant Garde', sans-serif; text-anchor: end" x="34.15" y="94.692552" transform="rotate(-0 34.15 94.692552)">4</text>
     </g>
    </g>
    <g id="ytick_6">
     <g id="line2d_13">
      <g>
       <use xlink:href="#m93b8d7e07f" x="41.15" y="52.826667" style="stroke: #000000; stroke-width: 0.8"/>
      </g>
     </g>
     <g id="text_14">
      <text style="font: 10px 'DejaVu Sans', 'Bitstream Vera Sans', 'Computer Modern Sans Serif', 'Lucida Grande', 'Verdana', 'Geneva', 'Lucid', 'Arial', 'Helvetica', 'Avant Garde', sans-serif; text-anchor: end" x="34.15" y="56.625885" transform="rotate(-0 34.15 56.625885)">5</text>
     </g>
    </g>
    <g id="ytick_7">
     <g id="line2d_14">
      <g>
       <use xlink:href="#m93b8d7e07f" x="41.15" y="14.76" style="stroke: #000000; stroke-width: 0.8"/>
      </g>
     </g>
     <g id="text_15">
      <text style="font: 10px 'DejaVu Sans', 'Bitstream Vera Sans', 'Computer Modern Sans Serif', 'Lucida Grande', 'Verdana', 'Geneva', 'Lucid', 'Arial', 'Helvetica', 'Avant Garde', sans-serif; text-anchor: end" x="34.15" y="18.559219" transform="rotate(-0 34.15 18.559219)">6</text>
     </g>
    </g>
    <g id="text_16">
     <!-- $cv_{\mathrm{off}}$ (share of population in %) -->
     <g transform="translate(21.5875 197.81) rotate(-90)">
      <text>
       <tspan style="font: oblique 10px 'DejaVu Sans'" x="0 5.498047" y="-0.71875">cv</tspan>
       <tspan style="font: 7px 'DejaVu Sans'" x="11.416016 15.69873 18.163086" y="0.921875">off</tspan>
       <tspan style="font: 10px 'Arial'" x="20.900879 23.679199 27.009277 32.009277 37.570801 43.132324 46.462402 52.023926 54.802246 60.36377 63.14209 65.92041 71.481934 77.043457 82.60498 88.166504 90.388184 95.949707 98.728027 100.949707 106.51123 112.072754 114.851074 117.072754 122.634277 125.412598 134.304199" y="-0.71875"> (share of population in %)</tspan>
      </text>
     </g>
    </g>
   </g>
   <g id="line2d_15">
    <path d="M 41.15 243.16 
L 120.668639 -1 
" clip-path="url(#pde7d0efe2a)" style="fill: none; stroke: #000000; stroke-width: 2; stroke-linecap: square"/>
   </g>
   <g id="line2d_16">
    <path d="M 42.389765 239.353333 
L 214.717059 224.126667 
" clip-path="url(#pde7d0efe2a)" style="fill: none; stroke-dasharray: 7.4,3.2; stroke-dashoffset: 0; stroke: #000000; stroke-width: 2"/>
   </g>
   <g id="line2d_17">
    <path d="M 103.138235 52.826667 
L 227.114706 243.16 
" clip-path="url(#pde7d0efe2a)" style="fill: none; stroke-dasharray: 7.4,3.2; stroke-dashoffset: 0; stroke: #000000; stroke-width: 2"/>
   </g>
   <g id="patch_3">
    <path d="M 41.15 243.16 
L 41.15 14.76 
" style="fill: none; stroke: #000000; stroke-width: 0.8; stroke-linejoin: miter; stroke-linecap: square"/>
   </g>
   <g id="patch_4">
    <path d="M 41.15 243.16 
L 251.91 243.16 
" style="fill: none; stroke: #000000; stroke-width: 0.8; stroke-linejoin: miter; stroke-linecap: square"/>
   </g>
   <g id="text_17">
    <text style="font: 10px 'Arial'; text-anchor: start" x="93.84" y="197.48" transform="rotate(-0 93.84 197.48)">Periodic (C)</text>
   </g>
   <g id="text_18">
    <text style="fill: #ffffff; font: 10px 'Arial'; text-anchor: start" x="157.068" y="240.876" transform="rotate(-0 157.068 240.876)">Dies out (B)</text>
   </g>
   <g id="text_19">
    <text style="font: 10px 'Arial'; text-anchor: start" x="167.606" y="140.38" transform="rotate(-0 167.606 140.38)">Endemic (D)</text>
   </g>
   <g id="text_20">
    <g id="patch_5">
     <path d="M 11.6436 14.2975 
L 20.30985 14.2975 
L 20.30985 3.34 
L 11.6436 3.34 
z
" style="fill: #ffffff; stroke: #ffffff; stroke-linejoin: miter"/>
    </g>
    <text style="font: 700 12px 'Arial'; text-anchor: start" x="11.6436" y="11.929375" transform="rotate(-0 11.6436 11.929375)">A</text>
   </g>
  </g>
  <g id="axes_2">
   <g id="patch_6">
    <path d="M 308.99 61.408547 
L 519.75 61.408547 
L 519.75 14.76 
L 308.99 14.76 
z
" style="fill: #ffffff"/>
   </g>
   <g id="PolyCollection_5">
    <defs>
     <path id="m49654f8d19" d="M 315.3128 -228.711842 
L 315.3128 -271.119612 
L 315.73432 -271.119612 
L 316.15584 -271.119612 
L 316.57736 -271.119612 
L 316.99888 -271.119612 
L 317.4204 -271.119612 
L 317.84192 -271.119612 
L 318.26344 -271.119612 
L 318.68496 -271.119612 
L 319.10648 -271.119612 
L 319.528 -271.119612 
L 319.94952 -271.119612 
L 320.37104 -271.119612 
L 320.79256 -271.119612 
L 321.21408 -271.119612 
L 321.6356 -271.119612 
L 322.05712 -271.119612 
L 322.47864 -271.119612 
L 322.90016 -271.119612 
L 323.32168 -271.119612 
L 323.7432 -271.119612 
L 324.16472 -271.119612 
L 324.58624 -271.119612 
L 325.00776 -271.119612 
L 325.42928 -271.119612 
L 325.8508 -271.119612 
L 326.27232 -271.119612 
L 326.69384 -271.119612 
L 327.11536 -271.119612 
L 327.53688 -271.119612 
L 327.9584 -271.119612 
L 328.37992 -271.119612 
L 328.80144 -271.119612 
L 329.22296 -271.119612 
L 329.64448 -271.119612 
L 330.066 -271.119612 
L 330.48752 -271.119612 
L 330.90904 -271.119612 
L 331.33056 -271.119612 
L 331.75208 -271.119612 
L 332.1736 -271.119612 
L 332.59512 -271.119612 
L 333.01664 -271.119612 
L 333.43816 -271.119612 
L 333.85968 -271.119612 
L 334.2812 -271.119612 
L 334.70272 -271.119612 
L 335.12424 -271.119612 
L 335.54576 -271.119612 
L 335.96728 -271.119612 
L 336.3888 -271.119612 
L 336.81032 -271.119612 
L 337.23184 -271.119612 
L 337.65336 -271.119612 
L 338.07488 -271.119612 
L 338.4964 -271.119612 
L 338.91792 -271.119612 
L 339.33944 -271.119612 
L 339.76096 -271.119612 
L 340.18248 -271.119612 
L 340.604 -271.119612 
L 341.02552 -271.119612 
L 341.44704 -271.119612 
L 341.86856 -271.119612 
L 342.29008 -271.119612 
L 342.7116 -271.119612 
L 343.13312 -271.119612 
L 343.55464 -271.119612 
L 343.97616 -271.119612 
L 344.39768 -271.119612 
L 344.8192 -271.119612 
L 345.24072 -271.119612 
L 345.66224 -271.119612 
L 346.08376 -271.119612 
L 346.08376 -228.711842 
L 346.08376 -228.711842 
L 345.66224 -228.711842 
L 345.24072 -228.711842 
L 344.8192 -228.711842 
L 344.39768 -228.711842 
L 343.97616 -228.711842 
L 343.55464 -228.711842 
L 343.13312 -228.711842 
L 342.7116 -228.711842 
L 342.29008 -228.711842 
L 341.86856 -228.711842 
L 341.44704 -228.711842 
L 341.02552 -228.711842 
L 340.604 -228.711842 
L 340.18248 -228.711842 
L 339.76096 -228.711842 
L 339.33944 -228.711842 
L 338.91792 -228.711842 
L 338.4964 -228.711842 
L 338.07488 -228.711842 
L 337.65336 -228.711842 
L 337.23184 -228.711842 
L 336.81032 -228.711842 
L 336.3888 -228.711842 
L 335.96728 -228.711842 
L 335.54576 -228.711842 
L 335.12424 -228.711842 
L 334.70272 -228.711842 
L 334.2812 -228.711842 
L 333.85968 -228.711842 
L 333.43816 -228.711842 
L 333.01664 -228.711842 
L 332.59512 -228.711842 
L 332.1736 -228.711842 
L 331.75208 -228.711842 
L 331.33056 -228.711842 
L 330.90904 -228.711842 
L 330.48752 -228.711842 
L 330.066 -228.711842 
L 329.64448 -228.711842 
L 329.22296 -228.711842 
L 328.80144 -228.711842 
L 328.37992 -228.711842 
L 327.9584 -228.711842 
L 327.53688 -228.711842 
L 327.11536 -228.711842 
L 326.69384 -228.711842 
L 326.27232 -228.711842 
L 325.8508 -228.711842 
L 325.42928 -228.711842 
L 325.00776 -228.711842 
L 324.58624 -228.711842 
L 324.16472 -228.711842 
L 323.7432 -228.711842 
L 323.32168 -228.711842 
L 322.90016 -228.711842 
L 322.47864 -228.711842 
L 322.05712 -228.711842 
L 321.6356 -228.711842 
L 321.21408 -228.711842 
L 320.79256 -228.711842 
L 320.37104 -228.711842 
L 319.94952 -228.711842 
L 319.528 -228.711842 
L 319.10648 -228.711842 
L 318.68496 -228.711842 
L 318.26344 -228.711842 
L 317.84192 -228.711842 
L 317.4204 -228.711842 
L 316.99888 -228.711842 
L 316.57736 -228.711842 
L 316.15584 -228.711842 
L 315.73432 -228.711842 
L 315.3128 -228.711842 
z
" style="stroke: #808080; stroke-opacity: 0.2"/>
    </defs>
    <g clip-path="url(#p1ae8158083)">
     <use xlink:href="#m49654f8d19" x="0" y="288" style="fill: #808080; fill-opacity: 0.2; stroke: #808080; stroke-opacity: 0.2"/>
    </g>
   </g>
   <g id="matplotlib.axis_3">
    <g id="xtick_8">
     <g id="line2d_18">
      <g>
       <use xlink:href="#mbfff012b01" x="308.99" y="61.408547" style="stroke: #000000; stroke-width: 0.8"/>
      </g>
     </g>
     <g id="text_21">
      <text style="font: 10px 'DejaVu Sans', 'Bitstream Vera Sans', 'Computer Modern Sans Serif', 'Lucida Grande', 'Verdana', 'Geneva', 'Lucid', 'Arial', 'Helvetica', 'Avant Garde', sans-serif; text-anchor: middle" x="308.99" y="76.006984" transform="rotate(-0 308.99 76.006984)">0</text>
     </g>
    </g>
    <g id="xtick_9">
     <g id="line2d_19">
      <g>
       <use xlink:href="#mbfff012b01" x="351.142" y="61.408547" style="stroke: #000000; stroke-width: 0.8"/>
      </g>
     </g>
     <g id="text_22">
      <text style="font: 10px 'DejaVu Sans', 'Bitstream Vera Sans', 'Computer Modern Sans Serif', 'Lucida Grande', 'Verdana', 'Geneva', 'Lucid', 'Arial', 'Helvetica', 'Avant Garde', sans-serif; text-anchor: middle" x="351.142" y="76.006984" transform="rotate(-0 351.142 76.006984)">100</text>
     </g>
    </g>
    <g id="xtick_10">
     <g id="line2d_20">
      <g>
       <use xlink:href="#mbfff012b01" x="393.294" y="61.408547" style="stroke: #000000; stroke-width: 0.8"/>
      </g>
     </g>
     <g id="text_23">
      <text style="font: 10px 'DejaVu Sans', 'Bitstream Vera Sans', 'Computer Modern Sans Serif', 'Lucida Grande', 'Verdana', 'Geneva', 'Lucid', 'Arial', 'Helvetica', 'Avant Garde', sans-serif; text-anchor: middle" x="393.294" y="76.006984" transform="rotate(-0 393.294 76.006984)">200</text>
     </g>
    </g>
    <g id="xtick_11">
     <g id="line2d_21">
      <g>
       <use xlink:href="#mbfff012b01" x="435.446" y="61.408547" style="stroke: #000000; stroke-width: 0.8"/>
      </g>
     </g>
     <g id="text_24">
      <text style="font: 10px 'DejaVu Sans', 'Bitstream Vera Sans', 'Computer Modern Sans Serif', 'Lucida Grande', 'Verdana', 'Geneva', 'Lucid', 'Arial', 'Helvetica', 'Avant Garde', sans-serif; text-anchor: middle" x="435.446" y="76.006984" transform="rotate(-0 435.446 76.006984)">300</text>
     </g>
    </g>
    <g id="xtick_12">
     <g id="line2d_22">
      <g>
       <use xlink:href="#mbfff012b01" x="477.598" y="61.408547" style="stroke: #000000; stroke-width: 0.8"/>
      </g>
     </g>
     <g id="text_25">
      <text style="font: 10px 'DejaVu Sans', 'Bitstream Vera Sans', 'Computer Modern Sans Serif', 'Lucida Grande', 'Verdana', 'Geneva', 'Lucid', 'Arial', 'Helvetica', 'Avant Garde', sans-serif; text-anchor: middle" x="477.598" y="76.006984" transform="rotate(-0 477.598 76.006984)">400</text>
     </g>
    </g>
    <g id="xtick_13">
     <g id="line2d_23">
      <g>
       <use xlink:href="#mbfff012b01" x="519.75" y="61.408547" style="stroke: #000000; stroke-width: 0.8"/>
      </g>
     </g>
     <g id="text_26">
      <text style="font: 10px 'DejaVu Sans', 'Bitstream Vera Sans', 'Computer Modern Sans Serif', 'Lucida Grande', 'Verdana', 'Geneva', 'Lucid', 'Arial', 'Helvetica', 'Avant Garde', sans-serif; text-anchor: middle" x="519.75" y="76.006984" transform="rotate(-0 519.75 76.006984)">500</text>
     </g>
    </g>
    <g id="text_27">
     <text style="font: 10px 'Arial'; text-anchor: middle" x="414.37" y="89.366359" transform="rotate(-0 414.37 89.366359)">Time (days)</text>
    </g>
   </g>
   <g id="matplotlib.axis_4">
    <g id="ytick_8">
     <g id="line2d_24">
      <g>
       <use xlink:href="#m93b8d7e07f" x="308.99" y="59.288158" style="stroke: #000000; stroke-width: 0.8"/>
      </g>
     </g>
     <g id="text_28">
      <text style="font: 10px 'DejaVu Sans', 'Bitstream Vera Sans', 'Computer Modern Sans Serif', 'Lucida Grande', 'Verdana', 'Geneva', 'Lucid', 'Arial', 'Helvetica', 'Avant Garde', sans-serif; text-anchor: end" x="301.99" y="63.087377" transform="rotate(-0 301.99 63.087377)">0</text>
     </g>
    </g>
    <g id="ytick_9">
     <g id="line2d_25">
      <g>
       <use xlink:href="#m93b8d7e07f" x="308.99" y="31.068987" style="stroke: #000000; stroke-width: 0.8"/>
      </g>
     </g>
     <g id="text_29">
      <text style="font: 10px 'DejaVu Sans', 'Bitstream Vera Sans', 'Computer Modern Sans Serif', 'Lucida Grande', 'Verdana', 'Geneva', 'Lucid', 'Arial', 'Helvetica', 'Avant Garde', sans-serif; text-anchor: end" x="301.99" y="34.868206" transform="rotate(-0 301.99 34.868206)">2500</text>
     </g>
    </g>
    <g id="text_30">
     <text style="font: 10px 'Arial'; text-anchor: middle" x="270.5525" y="38.084273" transform="rotate(-90 270.5525 38.084273)">Cases</text>
    </g>
   </g>
   <g id="line2d_26">
    <path d="M 309.41152 59.175281 
L 310.25456 59.073692 
L 310.67608 58.926953 
L 311.0976 58.40772 
L 311.51912 57.606295 
L 311.94064 55.540652 
L 312.36216 52.109201 
L 312.78368 46.454079 
L 314.04824 23.822304 
L 314.46976 18.009155 
L 314.89128 18.867018 
L 316.15584 29.500002 
L 317.4204 37.25463 
L 318.26344 41.1263 
L 319.528 46.081586 
L 320.79256 49.388873 
L 321.6356 50.844982 
L 322.47864 52.233365 
L 323.32168 53.655612 
L 325.00776 55.427776 
L 325.8508 56.071173 
L 327.11536 56.827446 
L 327.9584 57.199939 
L 328.80144 57.572432 
L 330.48752 58.080378 
L 331.33056 58.294843 
L 333.85968 58.735062 
L 335.54576 58.904377 
L 342.7116 59.197857 
L 541 59.288158 
L 541 59.288158 
" clip-path="url(#p1ae8158083)" style="fill: none; stroke: #ff0000; stroke-width: 1.5; stroke-linecap: square"/>
   </g>
   <g id="line2d_27">
    <path d="M 309.41152 59.288158 
L 311.51912 59.175281 
L 312.36216 58.926953 
L 312.78368 58.430295 
L 313.62672 56.985474 
L 314.46976 54.140981 
L 315.3128 51.917311 
L 316.15584 51.240051 
L 316.57736 51.161037 
L 316.99888 50.957859 
L 317.4204 51.262626 
L 317.84192 51.34164 
L 319.10648 52.0189 
L 319.528 52.583283 
L 319.94952 52.910626 
L 320.37104 53.384708 
L 322.90016 55.179447 
L 323.32168 55.574515 
L 325.00776 56.488816 
L 325.42928 56.816159 
L 328.80144 58.012652 
L 335.12424 58.926953 
L 341.86856 59.197857 
L 541 59.288158 
L 541 59.288158 
" clip-path="url(#p1ae8158083)" style="fill: none; stroke: #0000ff; stroke-width: 1.5; stroke-linecap: square"/>
   </g>
   <g id="line2d_28">
    <path d="M 315.3128 16.880388 
L 346.08376 16.880388 
L 346.08376 16.880388 
" clip-path="url(#p1ae8158083)" style="fill: none; stroke: #ffffff; stroke-width: 1.5; stroke-linecap: square"/>
   </g>
   <g id="line2d_29">
    <path d="M 308.99 53.644324 
L 519.75 53.644324 
" clip-path="url(#p1ae8158083)" style="fill: none; stroke-dasharray: 3.7,1.6; stroke-dashoffset: 0; stroke: #000000"/>
   </g>
   <g id="line2d_30">
    <path d="M 308.99 59.23172 
L 519.75 59.23172 
" clip-path="url(#p1ae8158083)" style="fill: none; stroke-dasharray: 3.7,1.6; stroke-dashoffset: 0; stroke: #000000"/>
   </g>
   <g id="patch_7">
    <path d="M 308.99 61.408547 
L 308.99 14.76 
" style="fill: none; stroke: #000000; stroke-width: 0.8; stroke-linejoin: miter; stroke-linecap: square"/>
   </g>
   <g id="patch_8">
    <path d="M 308.99 61.408547 
L 519.75 61.408547 
" style="fill: none; stroke: #000000; stroke-width: 0.8; stroke-linejoin: miter; stroke-linecap: square"/>
   </g>
   <g id="text_31">
    <g id="patch_9">
     <path d="M 256.3 23.385073 
L 264.96625 23.385073 
L 264.96625 12.427573 
L 256.3 12.427573 
z
" style="fill: #ffffff; stroke: #ffffff; stroke-linejoin: miter"/>
    </g>
    <text style="font: 700 12px 'Arial'; text-anchor: start" x="256.3" y="21.016948" transform="rotate(-0 256.3 21.016948)">B</text>
   </g>
   <g id="legend_1">
    <g id="line2d_31">
     <path d="M 436.35 27.417812 
L 446.35 27.417812 
L 456.35 27.417812 
" style="fill: none; stroke: #ff0000; stroke-width: 1.5; stroke-linecap: square"/>
    </g>
    <g id="text_32">
     <!-- $I(t)+D(t)$ -->
     <g transform="translate(464.35 30.917812)">
      <text>
       <tspan style="font: oblique 10px 'DejaVu Sans'" x="0 6.850586 26.948242 38.549805" y="-0.40625">ItDt</tspan>
       <tspan style="font: 10px 'DejaVu Sans'" x="2.949219 10.771484 16.621094 34.648438 42.470703" y="-0.40625">()+()</tspan>
      </text>
     </g>
    </g>
    <g id="line2d_32">
     <path d="M 436.35 41.563125 
L 446.35 41.563125 
L 456.35 41.563125 
" style="fill: none; stroke: #0000ff; stroke-width: 1.5; stroke-linecap: square"/>
    </g>
    <g id="text_33">
     <!-- $D(t)$ -->
     <g transform="translate(464.35 45.063125)">
      <text>
       <tspan style="font: oblique 10px 'DejaVu Sans'" x="0 11.601562" y="-0.40625">Dt</tspan>
       <tspan style="font: 10px 'DejaVu Sans'" x="7.700195 15.522461" y="-0.40625">()</tspan>
      </text>
     </g>
    </g>
   </g>
  </g>
  <g id="axes_3">
   <g id="patch_10">
    <path d="M 308.99 152.284273 
L 519.75 152.284273 
L 519.75 105.635727 
L 308.99 105.635727 
z
" style="fill: #ffffff"/>
   </g>
   <g id="PolyCollection_6">
    <path d="M 315.3128 150.163885 
L 315.3128 107.756115 
L 315.73432 107.756115 
L 316.15584 107.756115 
L 316.57736 107.756115 
L 316.99888 107.756115 
L 317.4204 107.756115 
L 317.84192 107.756115 
L 318.26344 107.756115 
L 318.68496 107.756115 
L 319.10648 107.756115 
L 319.528 107.756115 
L 319.94952 107.756115 
L 320.37104 107.756115 
L 320.79256 107.756115 
L 321.21408 107.756115 
L 321.6356 107.756115 
L 322.05712 107.756115 
L 322.47864 107.756115 
L 322.90016 107.756115 
L 323.32168 107.756115 
L 323.7432 107.756115 
L 324.16472 107.756115 
L 324.58624 107.756115 
L 325.00776 107.756115 
L 325.42928 107.756115 
L 325.8508 107.756115 
L 326.27232 107.756115 
L 326.69384 107.756115 
L 327.11536 107.756115 
L 327.53688 107.756115 
L 327.9584 107.756115 
L 328.37992 107.756115 
L 328.80144 107.756115 
L 329.22296 107.756115 
L 329.64448 107.756115 
L 330.066 107.756115 
L 330.48752 107.756115 
L 330.90904 107.756115 
L 331.33056 107.756115 
L 331.75208 107.756115 
L 331.75208 150.163885 
L 331.75208 150.163885 
L 331.33056 150.163885 
L 330.90904 150.163885 
L 330.48752 150.163885 
L 330.066 150.163885 
L 329.64448 150.163885 
L 329.22296 150.163885 
L 328.80144 150.163885 
L 328.37992 150.163885 
L 327.9584 150.163885 
L 327.53688 150.163885 
L 327.11536 150.163885 
L 326.69384 150.163885 
L 326.27232 150.163885 
L 325.8508 150.163885 
L 325.42928 150.163885 
L 325.00776 150.163885 
L 324.58624 150.163885 
L 324.16472 150.163885 
L 323.7432 150.163885 
L 323.32168 150.163885 
L 322.90016 150.163885 
L 322.47864 150.163885 
L 322.05712 150.163885 
L 321.6356 150.163885 
L 321.21408 150.163885 
L 320.79256 150.163885 
L 320.37104 150.163885 
L 319.94952 150.163885 
L 319.528 150.163885 
L 319.10648 150.163885 
L 318.68496 150.163885 
L 318.26344 150.163885 
L 317.84192 150.163885 
L 317.4204 150.163885 
L 316.99888 150.163885 
L 316.57736 150.163885 
L 316.15584 150.163885 
L 315.73432 150.163885 
L 315.3128 150.163885 
z
" clip-path="url(#pdc167ef4f8)" style="fill: #808080; fill-opacity: 0.2; stroke: #808080; stroke-opacity: 0.2"/>
    <path d="M 343.13312 150.163885 
L 343.13312 107.756115 
L 343.55464 107.756115 
L 343.97616 107.756115 
L 344.39768 107.756115 
L 344.8192 107.756115 
L 345.24072 107.756115 
L 345.66224 107.756115 
L 346.08376 107.756115 
L 346.50528 107.756115 
L 346.9268 107.756115 
L 347.34832 107.756115 
L 347.76984 107.756115 
L 348.19136 107.756115 
L 348.61288 107.756115 
L 349.0344 107.756115 
L 349.45592 107.756115 
L 349.87744 107.756115 
L 350.29896 107.756115 
L 350.72048 107.756115 
L 351.142 107.756115 
L 351.56352 107.756115 
L 351.98504 107.756115 
L 352.40656 107.756115 
L 352.82808 107.756115 
L 353.2496 107.756115 
L 353.67112 107.756115 
L 354.09264 107.756115 
L 354.51416 107.756115 
L 354.93568 107.756115 
L 355.3572 107.756115 
L 355.77872 107.756115 
L 356.20024 107.756115 
L 356.62176 107.756115 
L 357.04328 107.756115 
L 357.4648 107.756115 
L 357.88632 107.756115 
L 358.30784 107.756115 
L 358.30784 150.163885 
L 358.30784 150.163885 
L 357.88632 150.163885 
L 357.4648 150.163885 
L 357.04328 150.163885 
L 356.62176 150.163885 
L 356.20024 150.163885 
L 355.77872 150.163885 
L 355.3572 150.163885 
L 354.93568 150.163885 
L 354.51416 150.163885 
L 354.09264 150.163885 
L 353.67112 150.163885 
L 353.2496 150.163885 
L 352.82808 150.163885 
L 352.40656 150.163885 
L 351.98504 150.163885 
L 351.56352 150.163885 
L 351.142 150.163885 
L 350.72048 150.163885 
L 350.29896 150.163885 
L 349.87744 150.163885 
L 349.45592 150.163885 
L 349.0344 150.163885 
L 348.61288 150.163885 
L 348.19136 150.163885 
L 347.76984 150.163885 
L 347.34832 150.163885 
L 346.9268 150.163885 
L 346.50528 150.163885 
L 346.08376 150.163885 
L 345.66224 150.163885 
L 345.24072 150.163885 
L 344.8192 150.163885 
L 344.39768 150.163885 
L 343.97616 150.163885 
L 343.55464 150.163885 
L 343.13312 150.163885 
z
" clip-path="url(#pdc167ef4f8)" style="fill: #808080; fill-opacity: 0.2; stroke: #808080; stroke-opacity: 0.2"/>
    <path d="M 370.53192 150.163885 
L 370.53192 107.756115 
L 370.95344 107.756115 
L 371.37496 107.756115 
L 371.79648 107.756115 
L 372.218 107.756115 
L 372.63952 107.756115 
L 373.06104 107.756115 
L 373.48256 107.756115 
L 373.90408 107.756115 
L 374.3256 107.756115 
L 374.74712 107.756115 
L 375.16864 107.756115 
L 375.59016 107.756115 
L 376.01168 107.756115 
L 376.4332 107.756115 
L 376.85472 107.756115 
L 377.27624 107.756115 
L 377.69776 107.756115 
L 378.11928 107.756115 
L 378.5408 107.756115 
L 378.96232 107.756115 
L 379.38384 107.756115 
L 379.80536 107.756115 
L 380.22688 107.756115 
L 380.6484 107.756115 
L 381.06992 107.756115 
L 381.49144 107.756115 
L 381.91296 107.756115 
L 382.33448 107.756115 
L 382.756 107.756115 
L 383.17752 107.756115 
L 383.59904 107.756115 
L 384.02056 107.756115 
L 384.44208 107.756115 
L 384.8636 107.756115 
L 384.8636 150.163885 
L 384.8636 150.163885 
L 384.44208 150.163885 
L 384.02056 150.163885 
L 383.59904 150.163885 
L 383.17752 150.163885 
L 382.756 150.163885 
L 382.33448 150.163885 
L 381.91296 150.163885 
L 381.49144 150.163885 
L 381.06992 150.163885 
L 380.6484 150.163885 
L 380.22688 150.163885 
L 379.80536 150.163885 
L 379.38384 150.163885 
L 378.96232 150.163885 
L 378.5408 150.163885 
L 378.11928 150.163885 
L 377.69776 150.163885 
L 377.27624 150.163885 
L 376.85472 150.163885 
L 376.4332 150.163885 
L 376.01168 150.163885 
L 375.59016 150.163885 
L 375.16864 150.163885 
L 374.74712 150.163885 
L 374.3256 150.163885 
L 373.90408 150.163885 
L 373.48256 150.163885 
L 373.06104 150.163885 
L 372.63952 150.163885 
L 372.218 150.163885 
L 371.79648 150.163885 
L 371.37496 150.163885 
L 370.95344 150.163885 
L 370.53192 150.163885 
z
" clip-path="url(#pdc167ef4f8)" style="fill: #808080; fill-opacity: 0.2; stroke: #808080; stroke-opacity: 0.2"/>
    <path d="M 398.77376 150.163885 
L 398.77376 107.756115 
L 399.19528 107.756115 
L 399.6168 107.756115 
L 400.03832 107.756115 
L 400.45984 107.756115 
L 400.88136 107.756115 
L 401.30288 107.756115 
L 401.7244 107.756115 
L 402.14592 107.756115 
L 402.56744 107.756115 
L 402.98896 107.756115 
L 403.41048 107.756115 
L 403.832 107.756115 
L 404.25352 107.756115 
L 404.67504 107.756115 
L 405.09656 107.756115 
L 405.51808 107.756115 
L 405.9396 107.756115 
L 406.36112 107.756115 
L 406.78264 107.756115 
L 407.20416 107.756115 
L 407.62568 107.756115 
L 408.0472 107.756115 
L 408.46872 107.756115 
L 408.89024 107.756115 
L 409.31176 107.756115 
L 409.73328 107.756115 
L 410.1548 107.756115 
L 410.57632 107.756115 
L 410.99784 107.756115 
L 411.41936 107.756115 
L 411.84088 107.756115 
L 412.2624 107.756115 
L 412.68392 107.756115 
L 413.10544 107.756115 
L 413.52696 107.756115 
L 413.52696 150.163885 
L 413.52696 150.163885 
L 413.10544 150.163885 
L 412.68392 150.163885 
L 412.2624 150.163885 
L 411.84088 150.163885 
L 411.41936 150.163885 
L 410.99784 150.163885 
L 410.57632 150.163885 
L 410.1548 150.163885 
L 409.73328 150.163885 
L 409.31176 150.163885 
L 408.89024 150.163885 
L 408.46872 150.163885 
L 408.0472 150.163885 
L 407.62568 150.163885 
L 407.20416 150.163885 
L 406.78264 150.163885 
L 406.36112 150.163885 
L 405.9396 150.163885 
L 405.51808 150.163885 
L 405.09656 150.163885 
L 404.67504 150.163885 
L 404.25352 150.163885 
L 403.832 150.163885 
L 403.41048 150.163885 
L 402.98896 150.163885 
L 402.56744 150.163885 
L 402.14592 150.163885 
L 401.7244 150.163885 
L 401.30288 150.163885 
L 400.88136 150.163885 
L 400.45984 150.163885 
L 400.03832 150.163885 
L 399.6168 150.163885 
L 399.19528 150.163885 
L 398.77376 150.163885 
z
" clip-path="url(#pdc167ef4f8)" style="fill: #808080; fill-opacity: 0.2; stroke: #808080; stroke-opacity: 0.2"/>
    <path d="M 427.0156 150.163885 
L 427.0156 107.756115 
L 427.43712 107.756115 
L 427.85864 107.756115 
L 428.28016 107.756115 
L 428.70168 107.756115 
L 429.1232 107.756115 
L 429.54472 107.756115 
L 429.96624 107.756115 
L 430.38776 107.756115 
L 430.80928 107.756115 
L 431.2308 107.756115 
L 431.65232 107.756115 
L 432.07384 107.756115 
L 432.49536 107.756115 
L 432.91688 107.756115 
L 433.3384 107.756115 
L 433.75992 107.756115 
L 434.18144 107.756115 
L 434.60296 107.756115 
L 435.02448 107.756115 
L 435.446 107.756115 
L 435.86752 107.756115 
L 436.28904 107.756115 
L 436.71056 107.756115 
L 437.13208 107.756115 
L 437.5536 107.756115 
L 437.97512 107.756115 
L 438.39664 107.756115 
L 438.81816 107.756115 
L 439.23968 107.756115 
L 439.6612 107.756115 
L 440.08272 107.756115 
L 440.08272 150.163885 
L 440.08272 150.163885 
L 439.6612 150.163885 
L 439.23968 150.163885 
L 438.81816 150.163885 
L 438.39664 150.163885 
L 437.97512 150.163885 
L 437.5536 150.163885 
L 437.13208 150.163885 
L 436.71056 150.163885 
L 436.28904 150.163885 
L 435.86752 150.163885 
L 435.446 150.163885 
L 435.02448 150.163885 
L 434.60296 150.163885 
L 434.18144 150.163885 
L 433.75992 150.163885 
L 433.3384 150.163885 
L 432.91688 150.163885 
L 432.49536 150.163885 
L 432.07384 150.163885 
L 431.65232 150.163885 
L 431.2308 150.163885 
L 430.80928 150.163885 
L 430.38776 150.163885 
L 429.96624 150.163885 
L 429.54472 150.163885 
L 429.1232 150.163885 
L 428.70168 150.163885 
L 428.28016 150.163885 
L 427.85864 150.163885 
L 427.43712 150.163885 
L 427.0156 150.163885 
z
" clip-path="url(#pdc167ef4f8)" style="fill: #808080; fill-opacity: 0.2; stroke: #808080; stroke-opacity: 0.2"/>
    <path d="M 453.99288 150.163885 
L 453.99288 107.756115 
L 454.4144 107.756115 
L 454.83592 107.756115 
L 455.25744 107.756115 
L 455.67896 107.756115 
L 456.10048 107.756115 
L 456.522 107.756115 
L 456.94352 107.756115 
L 457.36504 107.756115 
L 457.78656 107.756115 
L 458.20808 107.756115 
L 458.6296 107.756115 
L 459.05112 107.756115 
L 459.47264 107.756115 
L 459.89416 107.756115 
L 460.31568 107.756115 
L 460.7372 107.756115 
L 461.15872 107.756115 
L 461.58024 107.756115 
L 462.00176 107.756115 
L 462.42328 107.756115 
L 462.8448 107.756115 
L 463.26632 107.756115 
L 463.68784 107.756115 
L 464.10936 107.756115 
L 464.53088 107.756115 
L 464.9524 107.756115 
L 465.37392 107.756115 
L 465.79544 107.756115 
L 466.21696 107.756115 
L 466.63848 107.756115 
L 467.06 107.756115 
L 467.48152 107.756115 
L 467.48152 150.163885 
L 467.48152 150.163885 
L 467.06 150.163885 
L 466.63848 150.163885 
L 466.21696 150.163885 
L 465.79544 150.163885 
L 465.37392 150.163885 
L 464.9524 150.163885 
L 464.53088 150.163885 
L 464.10936 150.163885 
L 463.68784 150.163885 
L 463.26632 150.163885 
L 462.8448 150.163885 
L 462.42328 150.163885 
L 462.00176 150.163885 
L 461.58024 150.163885 
L 461.15872 150.163885 
L 460.7372 150.163885 
L 460.31568 150.163885 
L 459.89416 150.163885 
L 459.47264 150.163885 
L 459.05112 150.163885 
L 458.6296 150.163885 
L 458.20808 150.163885 
L 457.78656 150.163885 
L 457.36504 150.163885 
L 456.94352 150.163885 
L 456.522 150.163885 
L 456.10048 150.163885 
L 455.67896 150.163885 
L 455.25744 150.163885 
L 454.83592 150.163885 
L 454.4144 150.163885 
L 453.99288 150.163885 
z
" clip-path="url(#pdc167ef4f8)" style="fill: #808080; fill-opacity: 0.2; stroke: #808080; stroke-opacity: 0.2"/>
    <path d="M 481.8132 150.163885 
L 481.8132 107.756115 
L 482.23472 107.756115 
L 482.65624 107.756115 
L 483.07776 107.756115 
L 483.49928 107.756115 
L 483.9208 107.756115 
L 484.34232 107.756115 
L 484.76384 107.756115 
L 485.18536 107.756115 
L 485.60688 107.756115 
L 486.0284 107.756115 
L 486.44992 107.756115 
L 486.87144 107.756115 
L 487.29296 107.756115 
L 487.71448 107.756115 
L 488.136 107.756115 
L 488.55752 107.756115 
L 488.97904 107.756115 
L 489.40056 107.756115 
L 489.82208 107.756115 
L 490.2436 107.756115 
L 490.66512 107.756115 
L 491.08664 107.756115 
L 491.50816 107.756115 
L 491.92968 107.756115 
L 492.3512 107.756115 
L 492.77272 107.756115 
L 493.19424 107.756115 
L 493.61576 107.756115 
L 494.03728 107.756115 
L 494.4588 107.756115 
L 494.88032 107.756115 
L 495.30184 107.756115 
L 495.72336 107.756115 
L 496.14488 107.756115 
L 496.14488 150.163885 
L 496.14488 150.163885 
L 495.72336 150.163885 
L 495.30184 150.163885 
L 494.88032 150.163885 
L 494.4588 150.163885 
L 494.03728 150.163885 
L 493.61576 150.163885 
L 493.19424 150.163885 
L 492.77272 150.163885 
L 492.3512 150.163885 
L 491.92968 150.163885 
L 491.50816 150.163885 
L 491.08664 150.163885 
L 490.66512 150.163885 
L 490.2436 150.163885 
L 489.82208 150.163885 
L 489.40056 150.163885 
L 488.97904 150.163885 
L 488.55752 150.163885 
L 488.136 150.163885 
L 487.71448 150.163885 
L 487.29296 150.163885 
L 486.87144 150.163885 
L 486.44992 150.163885 
L 486.0284 150.163885 
L 485.60688 150.163885 
L 485.18536 150.163885 
L 484.76384 150.163885 
L 484.34232 150.163885 
L 483.9208 150.163885 
L 483.49928 150.163885 
L 483.07776 150.163885 
L 482.65624 150.163885 
L 482.23472 150.163885 
L 481.8132 150.163885 
z
" clip-path="url(#pdc167ef4f8)" style="fill: #808080; fill-opacity: 0.2; stroke: #808080; stroke-opacity: 0.2"/>
    <path d="M 509.212 150.163885 
L 509.212 107.756115 
L 509.63352 107.756115 
L 510.05504 107.756115 
L 510.47656 107.756115 
L 510.89808 107.756115 
L 511.3196 107.756115 
L 511.74112 107.756115 
L 512.16264 107.756115 
L 512.58416 107.756115 
L 513.00568 107.756115 
L 513.4272 107.756115 
L 513.84872 107.756115 
L 514.27024 107.756115 
L 514.69176 107.756115 
L 515.11328 107.756115 
L 515.5348 107.756115 
L 515.95632 107.756115 
L 516.37784 107.756115 
L 516.79936 107.756115 
L 517.22088 107.756115 
L 517.6424 107.756115 
L 518.06392 107.756115 
L 518.48544 107.756115 
L 518.90696 107.756115 
L 519.32848 107.756115 
L 519.75 107.756115 
L 519.75 150.163885 
L 519.75 150.163885 
L 519.32848 150.163885 
L 518.90696 150.163885 
L 518.48544 150.163885 
L 518.06392 150.163885 
L 517.6424 150.163885 
L 517.22088 150.163885 
L 516.79936 150.163885 
L 516.37784 150.163885 
L 515.95632 150.163885 
L 515.5348 150.163885 
L 515.11328 150.163885 
L 514.69176 150.163885 
L 514.27024 150.163885 
L 513.84872 150.163885 
L 513.4272 150.163885 
L 513.00568 150.163885 
L 512.58416 150.163885 
L 512.16264 150.163885 
L 511.74112 150.163885 
L 511.3196 150.163885 
L 510.89808 150.163885 
L 510.47656 150.163885 
L 510.05504 150.163885 
L 509.63352 150.163885 
L 509.212 150.163885 
z
" clip-path="url(#pdc167ef4f8)" style="fill: #808080; fill-opacity: 0.2; stroke: #808080; stroke-opacity: 0.2"/>
   </g>
   <g id="matplotlib.axis_5">
    <g id="xtick_14">
     <g id="line2d_33">
      <g>
       <use xlink:href="#mbfff012b01" x="308.99" y="152.284273" style="stroke: #000000; stroke-width: 0.8"/>
      </g>
     </g>
     <g id="text_34">
      <text style="font: 10px 'DejaVu Sans', 'Bitstream Vera Sans', 'Computer Modern Sans Serif', 'Lucida Grande', 'Verdana', 'Geneva', 'Lucid', 'Arial', 'Helvetica', 'Avant Garde', sans-serif; text-anchor: middle" x="308.99" y="166.882711" transform="rotate(-0 308.99 166.882711)">0</text>
     </g>
    </g>
    <g id="xtick_15">
     <g id="line2d_34">
      <g>
       <use xlink:href="#mbfff012b01" x="351.142" y="152.284273" style="stroke: #000000; stroke-width: 0.8"/>
      </g>
     </g>
     <g id="text_35">
      <text style="font: 10px 'DejaVu Sans', 'Bitstream Vera Sans', 'Computer Modern Sans Serif', 'Lucida Grande', 'Verdana', 'Geneva', 'Lucid', 'Arial', 'Helvetica', 'Avant Garde', sans-serif; text-anchor: middle" x="351.142" y="166.882711" transform="rotate(-0 351.142 166.882711)">100</text>
     </g>
    </g>
    <g id="xtick_16">
     <g id="line2d_35">
      <g>
       <use xlink:href="#mbfff012b01" x="393.294" y="152.284273" style="stroke: #000000; stroke-width: 0.8"/>
      </g>
     </g>
     <g id="text_36">
      <text style="font: 10px 'DejaVu Sans', 'Bitstream Vera Sans', 'Computer Modern Sans Serif', 'Lucida Grande', 'Verdana', 'Geneva', 'Lucid', 'Arial', 'Helvetica', 'Avant Garde', sans-serif; text-anchor: middle" x="393.294" y="166.882711" transform="rotate(-0 393.294 166.882711)">200</text>
     </g>
    </g>
    <g id="xtick_17">
     <g id="line2d_36">
      <g>
       <use xlink:href="#mbfff012b01" x="435.446" y="152.284273" style="stroke: #000000; stroke-width: 0.8"/>
      </g>
     </g>
     <g id="text_37">
      <text style="font: 10px 'DejaVu Sans', 'Bitstream Vera Sans', 'Computer Modern Sans Serif', 'Lucida Grande', 'Verdana', 'Geneva', 'Lucid', 'Arial', 'Helvetica', 'Avant Garde', sans-serif; text-anchor: middle" x="435.446" y="166.882711" transform="rotate(-0 435.446 166.882711)">300</text>
     </g>
    </g>
    <g id="xtick_18">
     <g id="line2d_37">
      <g>
       <use xlink:href="#mbfff012b01" x="477.598" y="152.284273" style="stroke: #000000; stroke-width: 0.8"/>
      </g>
     </g>
     <g id="text_38">
      <text style="font: 10px 'DejaVu Sans', 'Bitstream Vera Sans', 'Computer Modern Sans Serif', 'Lucida Grande', 'Verdana', 'Geneva', 'Lucid', 'Arial', 'Helvetica', 'Avant Garde', sans-serif; text-anchor: middle" x="477.598" y="166.882711" transform="rotate(-0 477.598 166.882711)">400</text>
     </g>
    </g>
    <g id="xtick_19">
     <g id="line2d_38">
      <g>
       <use xlink:href="#mbfff012b01" x="519.75" y="152.284273" style="stroke: #000000; stroke-width: 0.8"/>
      </g>
     </g>
     <g id="text_39">
      <text style="font: 10px 'DejaVu Sans', 'Bitstream Vera Sans', 'Computer Modern Sans Serif', 'Lucida Grande', 'Verdana', 'Geneva', 'Lucid', 'Arial', 'Helvetica', 'Avant Garde', sans-serif; text-anchor: middle" x="519.75" y="166.882711" transform="rotate(-0 519.75 166.882711)">500</text>
     </g>
    </g>
    <g id="text_40">
     <text style="font: 10px 'Arial'; text-anchor: middle" x="414.37" y="180.242086" transform="rotate(-0 414.37 180.242086)">Time (days)</text>
    </g>
   </g>
   <g id="matplotlib.axis_6">
    <g id="ytick_10">
     <g id="line2d_39">
      <g>
       <use xlink:href="#m93b8d7e07f" x="308.99" y="150.163885" style="stroke: #000000; stroke-width: 0.8"/>
      </g>
     </g>
     <g id="text_41">
      <text style="font: 10px 'DejaVu Sans', 'Bitstream Vera Sans', 'Computer Modern Sans Serif', 'Lucida Grande', 'Verdana', 'Geneva', 'Lucid', 'Arial', 'Helvetica', 'Avant Garde', sans-serif; text-anchor: end" x="301.99" y="153.963104" transform="rotate(-0 301.99 153.963104)">0</text>
     </g>
    </g>
    <g id="ytick_11">
     <g id="line2d_40">
      <g>
       <use xlink:href="#m93b8d7e07f" x="308.99" y="125.100191" style="stroke: #000000; stroke-width: 0.8"/>
      </g>
     </g>
     <g id="text_42">
      <text style="font: 10px 'DejaVu Sans', 'Bitstream Vera Sans', 'Computer Modern Sans Serif', 'Lucida Grande', 'Verdana', 'Geneva', 'Lucid', 'Arial', 'Helvetica', 'Avant Garde', sans-serif; text-anchor: end" x="301.99" y="128.89941" transform="rotate(-0 301.99 128.89941)">2000</text>
     </g>
    </g>
    <g id="text_43">
     <text style="font: 10px 'Arial'; text-anchor: middle" x="270.5525" y="128.96" transform="rotate(-90 270.5525 128.96)">Cases</text>
    </g>
   </g>
   <g id="line2d_41">
    <path d="M 309.41152 150.038566 
L 310.25456 149.900716 
L 310.67608 149.787929 
L 311.51912 148.77285 
L 311.94064 147.61992 
L 312.36216 145.251401 
L 312.78368 140.652213 
L 313.2052 134.273503 
L 314.46976 109.0093 
L 314.89128 109.084491 
L 315.73432 116.077261 
L 316.57736 122.092548 
L 317.4204 126.641608 
L 318.26344 130.914968 
L 319.94952 137.143296 
L 321.6356 141.353996 
L 322.47864 143.033264 
L 322.90016 143.534538 
L 323.7432 144.862914 
L 324.58624 145.852929 
L 325.42928 146.629904 
L 326.27232 147.369283 
L 327.9584 148.409426 
L 328.37992 148.522213 
L 328.80144 148.785382 
L 331.33056 149.399442 
L 334.70272 149.750334 
L 335.54576 149.537292 
L 336.3888 148.923232 
L 337.65336 146.893073 
L 338.07488 145.953184 
L 338.91792 142.907945 
L 341.44704 129.147978 
L 342.29008 126.253121 
L 342.7116 125.375892 
L 343.55464 129.486338 
L 345.24072 136.604427 
L 346.50528 139.88777 
L 349.0344 144.449363 
L 350.29896 145.677484 
L 351.142 146.391799 
L 352.82808 147.720175 
L 355.3572 148.785382 
L 357.04328 149.173869 
L 358.30784 149.374378 
L 359.5724 149.336783 
L 360.83696 148.898168 
L 362.94456 147.08105 
L 363.36608 146.492054 
L 364.20912 144.549617 
L 365.8952 139.311305 
L 367.58128 133.446401 
L 368.42432 131.015223 
L 369.26736 129.486338 
L 369.68888 129.386083 
L 370.1104 130.45129 
L 370.95344 134.32363 
L 372.218 138.221035 
L 373.48256 141.57957 
L 375.16864 144.173662 
L 376.85472 146.241417 
L 377.27624 146.542181 
L 377.69776 146.980796 
L 379.38384 147.95828 
L 380.22688 148.221449 
L 381.49144 148.735254 
L 383.59904 149.211464 
L 384.8636 149.411974 
L 387.39272 149.650079 
L 388.23576 149.411974 
L 389.50032 148.948296 
L 389.92184 148.672595 
L 391.60792 146.717627 
L 392.02944 145.953184 
L 393.294 142.745031 
L 395.82312 132.707022 
L 397.5092 128.646704 
L 397.93072 128.308344 
L 398.35224 128.746959 
L 398.77376 130.852309 
L 401.7244 140.125876 
L 402.56744 141.792611 
L 403.41048 143.471879 
L 405.9396 146.391799 
L 406.78264 147.018391 
L 410.99784 148.785382 
L 412.2624 149.148805 
L 413.94848 149.474633 
L 416.4776 149.462101 
L 418.16368 148.9107 
L 419.00672 148.221449 
L 419.42824 147.858025 
L 420.6928 145.664952 
L 422.37888 140.514363 
L 423.64344 134.937691 
L 424.908 131.190669 
L 426.17256 128.684299 
L 427.0156 132.067898 
L 428.28016 136.905191 
L 429.54472 140.439172 
L 430.38776 142.093375 
L 431.2308 143.735047 
L 433.75992 146.705095 
L 434.18144 147.055987 
L 434.60296 147.231433 
L 435.446 147.807898 
L 437.13208 148.559808 
L 438.81816 149.098678 
L 440.08272 149.399442 
L 441.7688 149.44957 
L 442.61184 149.336783 
L 443.45488 149.211464 
L 443.8764 148.960827 
L 444.71944 148.822977 
L 445.14096 148.359299 
L 445.56248 148.196385 
L 446.82704 146.542181 
L 447.24856 145.664952 
L 448.51312 141.404124 
L 449.35616 138.183439 
L 451.04224 132.105494 
L 451.88528 130.426226 
L 452.72832 129.586592 
L 453.14984 129.310892 
L 453.99288 132.55664 
L 455.25744 137.406465 
L 455.67896 138.371417 
L 456.522 140.652213 
L 457.36504 142.306417 
L 459.47264 145.31406 
L 461.58024 147.118646 
L 462.00176 147.48207 
L 462.8448 147.883089 
L 463.26632 148.171321 
L 464.9524 148.760318 
L 465.79544 149.036019 
L 467.06 149.299187 
L 468.32456 149.549824 
L 470.85368 149.549824 
L 473.3828 148.923232 
L 473.80432 148.597404 
L 475.4904 145.903057 
L 476.33344 143.559602 
L 477.17648 140.602086 
L 479.28408 132.143089 
L 479.7056 130.200653 
L 480.12712 128.834682 
L 480.54864 128.408599 
L 481.39168 128.057707 
L 483.07776 135.088073 
L 483.9208 138.045589 
L 485.60688 141.629697 
L 487.29296 144.336576 
L 488.136 145.276465 
L 488.55752 145.852929 
L 489.40056 146.504586 
L 490.2436 147.068519 
L 491.08664 147.607388 
L 493.19424 148.660063 
L 496.98792 149.562356 
L 497.83096 149.625015 
L 499.09552 149.524761 
L 500.36008 148.873105 
L 501.62464 147.469538 
L 502.04616 146.692563 
L 504.15376 141.24121 
L 506.26136 133.183232 
L 507.1044 131.303455 
L 507.52592 130.376099 
L 507.94744 130.075334 
L 508.36896 130.601672 
L 509.212 134.098057 
L 510.05504 137.017977 
L 511.74112 141.278805 
L 513.00568 143.835302 
L 513.84872 144.875445 
L 514.69176 145.539633 
L 515.11328 146.103566 
L 516.37784 147.118646 
L 518.06392 148.259044 
L 522.70064 149.524761 
L 523.54368 149.549824 
L 524.38672 149.637547 
L 526.49432 149.349315 
L 527.33736 149.023487 
L 527.75888 148.722722 
L 528.1804 148.597404 
L 529.02344 147.632452 
L 529.86648 146.003312 
L 530.288 145.151146 
L 530.70952 143.760111 
L 531.97408 138.283694 
L 534.08168 130.576608 
L 534.92472 128.909873 
L 535.34624 128.62164 
L 535.76776 129.950016 
L 537.03232 135.100605 
L 537.87536 137.769888 
L 538.7184 140.100812 
L 540.40448 143.584665 
L 541 144.43093 
L 541 144.43093 
" clip-path="url(#pdc167ef4f8)" style="fill: none; stroke: #ff0000; stroke-width: 1.5; stroke-linecap: square"/>
   </g>
   <g id="line2d_42">
    <path d="M 309.41152 150.163885 
L 311.0976 150.088694 
L 311.94064 149.913248 
L 312.78368 149.599952 
L 313.2052 149.036019 
L 314.04824 147.068519 
L 314.89128 144.374172 
L 315.73432 142.506926 
L 316.15584 141.980589 
L 317.84192 141.57957 
L 318.26344 142.043248 
L 319.10648 142.344012 
L 319.528 142.87035 
L 320.37104 143.572133 
L 321.21408 144.461894 
L 323.32168 146.166226 
L 323.7432 146.391799 
L 324.58624 146.993328 
L 327.9584 148.747786 
L 328.37992 148.810445 
L 328.80144 149.036019 
L 330.90904 149.38691 
L 332.1736 149.599952 
L 336.81032 149.938312 
L 338.4964 149.612484 
L 339.33944 149.098678 
L 341.02552 147.319156 
L 343.55464 144.261385 
L 343.97616 144.010748 
L 345.66224 144.649872 
L 346.50528 145.038359 
L 346.9268 145.213805 
L 348.19136 146.253949 
L 348.61288 146.354203 
L 349.87744 147.131178 
L 351.142 147.607388 
L 353.67112 148.647531 
L 354.51416 148.898168 
L 358.72936 149.58742 
L 362.52304 149.574888 
L 362.94456 149.462101 
L 363.7876 149.424506 
L 364.63064 149.186401 
L 365.8952 148.597404 
L 368.42432 146.379267 
L 369.26736 145.715079 
L 370.1104 144.938105 
L 370.53192 144.83785 
L 370.95344 144.875445 
L 371.37496 144.7 
L 372.63952 145.213805 
L 373.06104 145.552165 
L 373.90408 145.815334 
L 375.16864 146.441926 
L 376.01168 146.980796 
L 376.4332 147.269028 
L 377.27624 147.469538 
L 377.69776 147.75777 
L 380.6484 148.735254 
L 384.02056 149.437038 
L 389.0788 149.800461 
L 389.92184 149.800461 
L 393.71552 148.948296 
L 394.55856 148.346767 
L 395.4016 147.607388 
L 395.82312 147.168773 
L 396.66616 146.542181 
L 397.5092 145.765207 
L 397.93072 145.439379 
L 398.35224 144.938105 
L 398.77376 144.913041 
L 399.19528 144.562149 
L 400.03832 144.461894 
L 400.45984 144.49949 
L 401.30288 145.013296 
L 401.7244 145.439379 
L 402.56744 145.727611 
L 403.832 146.517117 
L 404.25352 146.680031 
L 405.09656 147.218901 
L 405.51808 147.331687 
L 405.9396 147.632452 
L 406.36112 147.707643 
L 407.20416 148.083598 
L 408.0472 148.334235 
L 409.73328 148.835509 
L 414.79152 149.637547 
L 416.89912 149.812993 
L 419.00672 149.775398 
L 419.42824 149.762866 
L 419.84976 149.612484 
L 420.6928 149.524761 
L 421.53584 149.148805 
L 422.37888 148.57234 
L 422.8004 148.221449 
L 423.22192 148.071066 
L 425.32952 146.065971 
L 425.75104 145.489506 
L 427.0156 144.725063 
L 427.85864 144.750127 
L 428.70168 144.925573 
L 431.65232 146.567245 
L 432.91688 147.381815 
L 433.75992 147.795366 
L 439.6612 149.44957 
L 442.19032 149.72527 
L 443.45488 149.712738 
L 445.984 149.687675 
L 446.40552 149.599952 
L 446.82704 149.650079 
L 448.51312 148.998423 
L 450.1992 147.895621 
L 451.04224 146.930668 
L 452.3068 145.777738 
L 452.72832 145.589761 
L 453.14984 145.238869 
L 453.99288 144.875445 
L 454.4144 144.850382 
L 456.522 145.577229 
L 457.36504 146.091035 
L 458.6296 146.567245 
L 459.05112 146.905605 
L 460.31568 147.469538 
L 460.7372 147.695111 
L 461.58024 147.945748 
L 462.42328 148.284108 
L 462.8448 148.359299 
L 463.26632 148.57234 
L 468.74608 149.650079 
L 473.3828 149.825525 
L 475.4904 149.599952 
L 477.598 148.547277 
L 478.44104 148.008407 
L 481.8132 144.599745 
L 482.23472 144.424299 
L 483.07776 144.474426 
L 483.49928 144.624809 
L 483.9208 144.9757 
L 484.34232 145.075955 
L 485.18536 145.476974 
L 486.0284 145.815334 
L 486.44992 146.178758 
L 488.136 147.043455 
L 488.55752 147.381815 
L 489.40056 147.632452 
L 493.19424 149.023487 
L 495.72336 149.512229 
L 496.14488 149.524761 
L 497.40944 149.787929 
L 500.7816 149.92578 
L 501.62464 149.86312 
L 502.46768 149.662611 
L 503.73224 149.123742 
L 504.57528 148.484617 
L 506.68288 146.60484 
L 507.94744 145.376719 
L 509.212 144.825318 
L 510.89808 145.213805 
L 511.74112 145.815334 
L 513.84872 146.855477 
L 514.69176 147.181305 
L 515.11328 147.48207 
L 515.5348 147.644984 
L 515.95632 147.945748 
L 516.37784 148.020939 
L 518.06392 148.747786 
L 519.75 148.9107 
L 521.43608 149.38691 
L 523.54368 149.712738 
L 525.65128 149.888184 
L 529.86648 149.562356 
L 530.70952 149.261592 
L 531.97408 148.384363 
L 532.81712 147.519665 
L 533.23864 147.356751 
L 534.08168 146.241417 
L 536.18928 144.449363 
L 536.6108 144.324044 
L 537.87536 144.587213 
L 539.13992 145.326592 
L 540.40448 146.241417 
L 540.826 146.354203 
L 541 146.519741 
L 541 146.519741 
" clip-path="url(#pdc167ef4f8)" style="fill: none; stroke: #0000ff; stroke-width: 1.5; stroke-linecap: square"/>
   </g>
   <g id="line2d_43">
    <path d="M 315.3128 107.756115 
L 331.75208 107.756115 
M 343.13312 107.756115 
L 358.30784 107.756115 
M 370.53192 107.756115 
L 384.8636 107.756115 
M 398.77376 107.756115 
L 413.52696 107.756115 
M 427.0156 107.756115 
L 440.08272 107.756115 
M 453.99288 107.756115 
L 467.48152 107.756115 
M 481.8132 107.756115 
L 496.14488 107.756115 
M 509.212 107.756115 
L 519.75 107.756115 
L 519.75 107.756115 
" clip-path="url(#pdc167ef4f8)" style="fill: none; stroke: #ffffff; stroke-width: 1.5; stroke-linecap: square"/>
   </g>
   <g id="line2d_44">
    <path d="M 308.99 145.151146 
L 519.75 145.151146 
" clip-path="url(#pdc167ef4f8)" style="fill: none; stroke-dasharray: 3.7,1.6; stroke-dashoffset: 0; stroke: #000000"/>
   </g>
   <g id="line2d_45">
    <path d="M 308.99 149.537292 
L 519.75 149.537292 
" clip-path="url(#pdc167ef4f8)" style="fill: none; stroke-dasharray: 3.7,1.6; stroke-dashoffset: 0; stroke: #000000"/>
   </g>
   <g id="patch_11">
    <path d="M 308.99 152.284273 
L 308.99 105.635727 
" style="fill: none; stroke: #000000; stroke-width: 0.8; stroke-linejoin: miter; stroke-linecap: square"/>
   </g>
   <g id="patch_12">
    <path d="M 308.99 152.284273 
L 519.75 152.284273 
" style="fill: none; stroke: #000000; stroke-width: 0.8; stroke-linejoin: miter; stroke-linecap: square"/>
   </g>
   <g id="text_44">
    <g id="patch_13">
     <path d="M 256.3 114.260799 
L 264.96625 114.260799 
L 264.96625 103.303299 
L 256.3 103.303299 
z
" style="fill: #ffffff; stroke: #ffffff; stroke-linejoin: miter"/>
    </g>
    <text style="font: 700 12px 'Arial'; text-anchor: start" x="256.3" y="111.892674" transform="rotate(-0 256.3 111.892674)">C</text>
   </g>
  </g>
  <g id="axes_4">
   <g id="patch_14">
    <path d="M 308.99 243.16 
L 519.75 243.16 
L 519.75 196.511453 
L 308.99 196.511453 
z
" style="fill: #ffffff"/>
   </g>
   <g id="PolyCollection_7">
    <path d="M 315.73432 241.039612 
L 315.73432 198.631842 
L 316.15584 198.631842 
L 316.57736 198.631842 
L 316.99888 198.631842 
L 317.4204 198.631842 
L 317.84192 198.631842 
L 318.26344 198.631842 
L 318.68496 198.631842 
L 319.10648 198.631842 
L 319.528 198.631842 
L 319.94952 198.631842 
L 320.37104 198.631842 
L 320.79256 198.631842 
L 321.21408 198.631842 
L 321.6356 198.631842 
L 322.05712 198.631842 
L 322.47864 198.631842 
L 322.90016 198.631842 
L 323.32168 198.631842 
L 323.7432 198.631842 
L 324.16472 198.631842 
L 324.58624 198.631842 
L 325.00776 198.631842 
L 325.42928 198.631842 
L 325.8508 198.631842 
L 326.27232 198.631842 
L 326.69384 198.631842 
L 327.11536 198.631842 
L 327.53688 198.631842 
L 327.9584 198.631842 
L 327.9584 241.039612 
L 327.9584 241.039612 
L 327.53688 241.039612 
L 327.11536 241.039612 
L 326.69384 241.039612 
L 326.27232 241.039612 
L 325.8508 241.039612 
L 325.42928 241.039612 
L 325.00776 241.039612 
L 324.58624 241.039612 
L 324.16472 241.039612 
L 323.7432 241.039612 
L 323.32168 241.039612 
L 322.90016 241.039612 
L 322.47864 241.039612 
L 322.05712 241.039612 
L 321.6356 241.039612 
L 321.21408 241.039612 
L 320.79256 241.039612 
L 320.37104 241.039612 
L 319.94952 241.039612 
L 319.528 241.039612 
L 319.10648 241.039612 
L 318.68496 241.039612 
L 318.26344 241.039612 
L 317.84192 241.039612 
L 317.4204 241.039612 
L 316.99888 241.039612 
L 316.57736 241.039612 
L 316.15584 241.039612 
L 315.73432 241.039612 
z
" clip-path="url(#p9860eedfd2)" style="fill: #808080; fill-opacity: 0.2; stroke: #808080; stroke-opacity: 0.2"/>
    <path d="M 344.8192 241.039612 
L 344.8192 198.631842 
L 345.24072 198.631842 
L 345.66224 198.631842 
L 346.08376 198.631842 
L 346.50528 198.631842 
L 346.9268 198.631842 
L 347.34832 198.631842 
L 347.76984 198.631842 
L 348.19136 198.631842 
L 348.61288 198.631842 
L 349.0344 198.631842 
L 349.45592 198.631842 
L 349.87744 198.631842 
L 350.29896 198.631842 
L 350.72048 198.631842 
L 351.142 198.631842 
L 351.56352 198.631842 
L 351.98504 198.631842 
L 352.40656 198.631842 
L 352.82808 198.631842 
L 353.2496 198.631842 
L 353.2496 241.039612 
L 353.2496 241.039612 
L 352.82808 241.039612 
L 352.40656 241.039612 
L 351.98504 241.039612 
L 351.56352 241.039612 
L 351.142 241.039612 
L 350.72048 241.039612 
L 350.29896 241.039612 
L 349.87744 241.039612 
L 349.45592 241.039612 
L 349.0344 241.039612 
L 348.61288 241.039612 
L 348.19136 241.039612 
L 347.76984 241.039612 
L 347.34832 241.039612 
L 346.9268 241.039612 
L 346.50528 241.039612 
L 346.08376 241.039612 
L 345.66224 241.039612 
L 345.24072 241.039612 
L 344.8192 241.039612 
z
" clip-path="url(#p9860eedfd2)" style="fill: #808080; fill-opacity: 0.2; stroke: #808080; stroke-opacity: 0.2"/>
   </g>
   <g id="matplotlib.axis_7">
    <g id="xtick_20">
     <g id="line2d_46">
      <g>
       <use xlink:href="#mbfff012b01" x="308.99" y="243.16" style="stroke: #000000; stroke-width: 0.8"/>
      </g>
     </g>
     <g id="text_45">
      <text style="font: 10px 'DejaVu Sans', 'Bitstream Vera Sans', 'Computer Modern Sans Serif', 'Lucida Grande', 'Verdana', 'Geneva', 'Lucid', 'Arial', 'Helvetica', 'Avant Garde', sans-serif; text-anchor: middle" x="308.99" y="257.758437" transform="rotate(-0 308.99 257.758437)">0</text>
     </g>
    </g>
    <g id="xtick_21">
     <g id="line2d_47">
      <g>
       <use xlink:href="#mbfff012b01" x="351.142" y="243.16" style="stroke: #000000; stroke-width: 0.8"/>
      </g>
     </g>
     <g id="text_46">
      <text style="font: 10px 'DejaVu Sans', 'Bitstream Vera Sans', 'Computer Modern Sans Serif', 'Lucida Grande', 'Verdana', 'Geneva', 'Lucid', 'Arial', 'Helvetica', 'Avant Garde', sans-serif; text-anchor: middle" x="351.142" y="257.758437" transform="rotate(-0 351.142 257.758437)">100</text>
     </g>
    </g>
    <g id="xtick_22">
     <g id="line2d_48">
      <g>
       <use xlink:href="#mbfff012b01" x="393.294" y="243.16" style="stroke: #000000; stroke-width: 0.8"/>
      </g>
     </g>
     <g id="text_47">
      <text style="font: 10px 'DejaVu Sans', 'Bitstream Vera Sans', 'Computer Modern Sans Serif', 'Lucida Grande', 'Verdana', 'Geneva', 'Lucid', 'Arial', 'Helvetica', 'Avant Garde', sans-serif; text-anchor: middle" x="393.294" y="257.758437" transform="rotate(-0 393.294 257.758437)">200</text>
     </g>
    </g>
    <g id="xtick_23">
     <g id="line2d_49">
      <g>
       <use xlink:href="#mbfff012b01" x="435.446" y="243.16" style="stroke: #000000; stroke-width: 0.8"/>
      </g>
     </g>
     <g id="text_48">
      <text style="font: 10px 'DejaVu Sans', 'Bitstream Vera Sans', 'Computer Modern Sans Serif', 'Lucida Grande', 'Verdana', 'Geneva', 'Lucid', 'Arial', 'Helvetica', 'Avant Garde', sans-serif; text-anchor: middle" x="435.446" y="257.758437" transform="rotate(-0 435.446 257.758437)">300</text>
     </g>
    </g>
    <g id="xtick_24">
     <g id="line2d_50">
      <g>
       <use xlink:href="#mbfff012b01" x="477.598" y="243.16" style="stroke: #000000; stroke-width: 0.8"/>
      </g>
     </g>
     <g id="text_49">
      <text style="font: 10px 'DejaVu Sans', 'Bitstream Vera Sans', 'Computer Modern Sans Serif', 'Lucida Grande', 'Verdana', 'Geneva', 'Lucid', 'Arial', 'Helvetica', 'Avant Garde', sans-serif; text-anchor: middle" x="477.598" y="257.758437" transform="rotate(-0 477.598 257.758437)">400</text>
     </g>
    </g>
    <g id="xtick_25">
     <g id="line2d_51">
      <g>
       <use xlink:href="#mbfff012b01" x="519.75" y="243.16" style="stroke: #000000; stroke-width: 0.8"/>
      </g>
     </g>
     <g id="text_50">
      <text style="font: 10px 'DejaVu Sans', 'Bitstream Vera Sans', 'Computer Modern Sans Serif', 'Lucida Grande', 'Verdana', 'Geneva', 'Lucid', 'Arial', 'Helvetica', 'Avant Garde', sans-serif; text-anchor: middle" x="519.75" y="257.758437" transform="rotate(-0 519.75 257.758437)">500</text>
     </g>
    </g>
    <g id="text_51">
     <text style="font: 10px 'Arial'; text-anchor: middle" x="414.37" y="271.117812" transform="rotate(-0 414.37 271.117812)">Time (days)</text>
    </g>
   </g>
   <g id="matplotlib.axis_8">
    <g id="ytick_12">
     <g id="line2d_52">
      <g>
       <use xlink:href="#m93b8d7e07f" x="308.99" y="241.039612" style="stroke: #000000; stroke-width: 0.8"/>
      </g>
     </g>
     <g id="text_52">
      <text style="font: 10px 'DejaVu Sans', 'Bitstream Vera Sans', 'Computer Modern Sans Serif', 'Lucida Grande', 'Verdana', 'Geneva', 'Lucid', 'Arial', 'Helvetica', 'Avant Garde', sans-serif; text-anchor: end" x="301.99" y="244.83883" transform="rotate(-0 301.99 244.83883)">0</text>
     </g>
    </g>
    <g id="ytick_13">
     <g id="line2d_53">
      <g>
       <use xlink:href="#m93b8d7e07f" x="308.99" y="213.966214" style="stroke: #000000; stroke-width: 0.8"/>
      </g>
     </g>
     <g id="text_53">
      <text style="font: 10px 'DejaVu Sans', 'Bitstream Vera Sans', 'Computer Modern Sans Serif', 'Lucida Grande', 'Verdana', 'Geneva', 'Lucid', 'Arial', 'Helvetica', 'Avant Garde', sans-serif; text-anchor: end" x="301.99" y="217.765433" transform="rotate(-0 301.99 217.765433)">2500</text>
     </g>
    </g>
    <g id="text_54">
     <text style="font: 10px 'Arial'; text-anchor: middle" x="270.5525" y="219.835727" transform="rotate(-90 270.5525 219.835727)">Cases</text>
    </g>
   </g>
   <g id="line2d_54">
    <path d="M 309.41152 240.931318 
L 310.67608 240.866342 
L 311.0976 240.55229 
L 311.51912 239.999993 
L 311.94064 239.068668 
L 312.36216 237.303483 
L 312.78368 233.881405 
L 313.62672 221.904134 
L 314.46976 206.331516 
L 314.89128 200.310393 
L 315.3128 199.714778 
L 317.4204 215.633935 
L 318.68496 222.012428 
L 319.528 224.914696 
L 320.79256 229.019023 
L 322.05712 231.964609 
L 323.7432 235.235075 
L 325.42928 237.292653 
L 328.80144 239.198621 
L 330.48752 239.361061 
L 331.75208 238.927887 
L 332.59512 238.332272 
L 333.85968 236.902796 
L 334.70272 235.375857 
L 335.12424 234.249603 
L 335.54576 233.653989 
L 336.3888 231.542264 
L 337.65336 227.600377 
L 338.91792 224.34074 
L 340.18248 222.629701 
L 340.604 222.867947 
L 341.02552 222.737995 
L 341.86856 223.311951 
L 342.29008 223.66932 
L 342.7116 223.604344 
L 344.39768 225.726898 
L 345.66224 229.668785 
L 346.9268 232.646858 
L 348.61288 235.430004 
L 350.29896 237.206018 
L 352.40656 238.722129 
L 354.51416 239.361061 
L 357.4648 239.263597 
L 359.15088 238.332272 
L 359.5724 238.039879 
L 359.99392 237.574217 
L 360.41544 237.325141 
L 361.25848 235.895666 
L 362.10152 234.541996 
L 362.52304 233.913893 
L 363.36608 232.083732 
L 363.7876 231.553093 
L 364.63064 230.015324 
L 365.8952 228.531702 
L 366.31672 228.109357 
L 367.15976 227.697841 
L 367.58128 227.806135 
L 368.0028 227.600377 
L 368.42432 227.643695 
L 368.84584 227.524572 
L 370.1104 227.665353 
L 370.53192 227.730329 
L 370.95344 228.001063 
L 371.79648 228.975706 
L 372.218 229.170634 
L 374.74712 231.195724 
L 375.59016 231.683045 
L 376.01168 231.618069 
L 377.27624 232.159537 
L 377.69776 232.28949 
L 378.11928 232.560223 
L 378.96232 232.809299 
L 379.38384 232.701005 
L 381.06992 233.318279 
L 382.33448 233.903064 
L 382.756 234.455361 
L 383.17752 234.455361 
L 384.8636 235.15927 
L 385.70664 235.256734 
L 386.12816 235.180928 
L 388.65728 235.733226 
L 390.34336 235.375857 
L 390.76488 235.289222 
L 391.1864 234.845218 
L 391.60792 234.682778 
L 392.02944 234.292921 
L 392.87248 234.217115 
L 393.294 234.184627 
L 395.4016 233.285791 
L 395.82312 233.329108 
L 396.24464 233.145009 
L 397.08768 233.404913 
L 397.93072 233.350767 
L 398.35224 233.101691 
L 398.77376 233.188326 
L 400.03832 232.744323 
L 400.88136 232.657688 
L 401.30288 232.690176 
L 401.7244 232.560223 
L 402.14592 232.27866 
L 403.832 231.975438 
L 404.25352 232.11622 
L 405.51808 231.975438 
L 405.9396 232.28949 
L 406.36112 232.354466 
L 407.20416 232.830957 
L 408.0472 232.885104 
L 408.46872 232.885104 
L 410.1548 233.675647 
L 410.57632 233.675647 
L 411.41936 233.502378 
L 414.79152 234.097992 
L 415.63456 233.8056 
L 416.05608 233.599842 
L 416.89912 233.740624 
L 419.00672 233.946381 
L 420.27128 233.653989 
L 420.6928 233.718965 
L 421.53584 233.686477 
L 421.95736 233.859747 
L 424.06496 233.621501 
L 424.48648 233.404913 
L 426.17256 233.177497 
L 426.59408 233.394084 
L 427.0156 233.46989 
L 427.43712 233.664818 
L 429.54472 233.502378 
L 429.96624 233.069203 
L 434.18144 233.892235 
L 435.02448 233.448231 
L 435.86752 233.448231 
L 436.28904 233.361596 
L 436.71056 233.13418 
L 437.97512 232.971739 
L 438.39664 232.885104 
L 438.81816 233.015057 
L 439.6612 232.603541 
L 441.7688 232.365295 
L 442.19032 232.28949 
L 442.61184 232.332807 
L 443.03336 232.213684 
L 443.8764 232.321978 
L 444.71944 232.906763 
L 447.24856 233.718965 
L 448.0916 233.892235 
L 449.35616 233.599842 
L 451.04224 233.751453 
L 451.88528 234.097992 
L 452.3068 234.033016 
L 453.14984 234.422873 
L 453.57136 234.47702 
L 453.99288 234.260433 
L 456.10048 234.108822 
L 456.522 233.8056 
L 456.94352 233.79477 
L 457.36504 233.664818 
L 458.20808 233.924723 
L 458.6296 233.881405 
L 459.47264 233.556524 
L 460.31568 233.621501 
L 461.15872 233.350767 
L 461.58024 233.318279 
L 462.42328 233.545695 
L 463.26632 233.79477 
L 464.9524 234.054675 
L 465.37392 233.881405 
L 465.79544 233.567354 
L 466.21696 233.773112 
L 467.06 233.751453 
L 467.48152 233.545695 
L 469.1676 233.610671 
L 470.43216 234.152139 
L 471.2752 234.130481 
L 472.11824 234.444532 
L 473.3828 234.856048 
L 475.06888 234.628631 
L 476.33344 234.964341 
L 477.598 234.823559 
L 478.01952 234.866877 
L 478.44104 234.520337 
L 479.28408 234.282092 
L 479.7056 233.989699 
L 480.54864 233.8056 
L 481.39168 233.491548 
L 482.23472 233.556524 
L 482.65624 233.361596 
L 484.76384 233.762282 
L 485.60688 233.545695 
L 486.0284 233.46989 
L 486.87144 233.145009 
L 487.29296 233.188326 
L 487.71448 233.372425 
L 488.136 233.253302 
L 489.82208 233.307449 
L 490.2436 233.101691 
L 491.50816 233.047545 
L 491.92968 232.733493 
L 492.3512 232.690176 
L 493.19424 232.917592 
L 494.88032 233.101691 
L 496.5664 233.339937 
L 498.25248 233.145009 
L 498.674 233.491548 
L 499.09552 233.578183 
L 499.51704 233.45906 
L 499.93856 233.491548 
L 500.7816 233.29662 
L 501.62464 233.426572 
L 502.8892 233.534866 
L 503.73224 233.79477 
L 504.9968 233.935552 
L 505.41832 233.848917 
L 505.83984 234.065504 
L 506.26136 233.892235 
L 506.68288 233.870576 
L 507.1044 234.033016 
L 508.79048 233.838088 
L 509.212 233.935552 
L 509.63352 233.773112 
L 510.47656 233.653989 
L 510.89808 233.589013 
L 511.3196 233.740624 
L 511.74112 233.513207 
L 512.16264 233.63233 
L 512.58416 233.545695 
L 513.00568 233.621501 
L 513.84872 233.274961 
L 514.69176 233.686477 
L 515.5348 233.545695 
L 515.95632 233.567354 
L 516.79936 233.339937 
L 518.06392 233.188326 
L 518.48544 233.036715 
L 518.90696 233.004227 
L 519.75 233.242473 
L 520.17152 233.058374 
L 521.43608 233.112521 
L 521.8576 232.885104 
L 522.70064 232.939251 
L 523.9652 232.733493 
L 524.38672 232.78764 
L 525.22976 233.12335 
L 525.65128 233.080033 
L 526.91584 233.480719 
L 527.75888 234.097992 
L 529.44496 234.325409 
L 530.288 234.682778 
L 531.13104 234.661119 
L 531.97408 234.736925 
L 532.3956 234.81273 
L 533.23864 234.606972 
L 534.08168 234.801901 
L 534.5032 235.050976 
L 536.6108 235.072635 
L 537.03232 234.715266 
L 537.87536 234.693607 
L 538.29688 234.531167 
L 538.7184 234.531167 
L 539.13992 234.357897 
L 539.56144 234.347068 
L 540.40448 233.848917 
L 541 233.634219 
L 541 233.634219 
" clip-path="url(#p9860eedfd2)" style="fill: none; stroke: #ff0000; stroke-width: 1.5; stroke-linecap: square"/>
   </g>
   <g id="line2d_55">
    <path d="M 309.41152 241.039612 
L 311.94064 240.931318 
L 312.36216 240.844683 
L 313.2052 240.346533 
L 313.62672 239.870041 
L 316.15584 233.242473 
L 316.99888 232.679346 
L 318.26344 232.906763 
L 319.10648 233.29662 
L 319.94952 233.63233 
L 320.79256 234.531167 
L 322.90016 236.350499 
L 324.16472 237.52007 
L 325.00776 238.104855 
L 325.8508 238.483883 
L 327.53688 239.057839 
L 328.37992 239.480184 
L 330.90904 239.967505 
L 332.59512 240.194922 
L 335.96728 239.404378 
L 337.23184 238.852081 
L 337.65336 238.408077 
L 341.02552 236.253035 
L 342.7116 235.906495 
L 343.13312 235.884837 
L 343.97616 235.679079 
L 344.39768 235.581615 
L 345.66224 236.1664 
L 346.50528 236.480451 
L 347.34832 236.913626 
L 347.76984 237.141042 
L 348.19136 237.509241 
L 349.87744 238.202319 
L 354.09264 239.664283 
L 357.88632 240.238239 
L 359.99392 240.259898 
L 361.68 240.021652 
L 363.36608 239.296085 
L 364.20912 239.101156 
L 366.31672 238.223978 
L 367.58128 237.779974 
L 368.42432 237.487582 
L 368.84584 237.433435 
L 370.1104 236.935284 
L 370.53192 236.816162 
L 373.90408 237.086896 
L 374.3256 237.227677 
L 375.16864 237.314312 
L 376.01168 237.509241 
L 376.85472 237.660852 
L 379.80536 238.007391 
L 380.22688 237.996562 
L 380.6484 238.169831 
L 381.49144 238.245637 
L 381.91296 238.126514 
L 383.17752 238.332272 
L 384.8636 238.624664 
L 388.23576 239.003692 
L 389.0788 239.296085 
L 391.1864 239.057839 
L 392.45096 238.852081 
L 392.87248 238.797934 
L 393.294 238.895398 
L 394.13704 238.852081 
L 394.55856 239.003692 
L 396.66616 238.667982 
L 397.93072 238.70047 
L 398.77376 238.451395 
L 399.19528 238.581347 
L 399.6168 238.592176 
L 400.03832 238.473053 
L 400.45984 238.494712 
L 400.88136 238.397248 
L 401.30288 238.516371 
L 402.14592 238.202319 
L 402.98896 238.02905 
L 403.832 237.920756 
L 404.25352 237.920756 
L 404.67504 238.083197 
L 408.46872 238.53803 
L 408.89024 238.743787 
L 409.31176 238.646323 
L 410.57632 238.657153 
L 410.99784 238.581347 
L 411.41936 238.646323 
L 411.84088 238.592176 
L 412.2624 238.689641 
L 412.68392 238.646323 
L 413.52696 238.808764 
L 416.4776 239.047009 
L 418.16368 238.722129 
L 419.42824 238.906228 
L 420.6928 238.819593 
L 421.11432 238.808764 
L 421.53584 238.678811 
L 422.37888 238.808764 
L 422.8004 238.754617 
L 423.22192 238.559688 
L 424.06496 238.581347 
L 424.908 238.332272 
L 426.17256 238.310613 
L 429.1232 238.613835 
L 431.65232 238.592176 
L 432.07384 238.613835 
L 432.49536 238.451395 
L 434.18144 238.5272 
L 435.02448 238.548859 
L 437.5536 238.53803 
L 438.39664 238.505542 
L 438.81816 238.613835 
L 440.08272 238.332272 
L 440.50424 238.408077 
L 440.92576 238.310613 
L 441.7688 238.299784 
L 442.61184 238.180661 
L 443.03336 238.01822 
L 443.45488 238.02905 
L 443.8764 237.85578 
L 444.71944 237.888268 
L 448.0916 238.516371 
L 449.35616 238.462224 
L 450.1992 238.516371 
L 451.04224 238.408077 
L 451.46376 238.375589 
L 452.72832 238.678811 
L 453.14984 238.667982 
L 453.99288 238.86291 
L 455.25744 238.841252 
L 456.522 238.646323 
L 457.78656 238.667982 
L 460.31568 238.830422 
L 461.58024 238.548859 
L 465.37392 238.743787 
L 466.21696 238.765446 
L 467.06 238.797934 
L 467.90304 238.646323 
L 469.58912 238.288954 
L 470.43216 238.505542 
L 474.22584 238.624664 
L 475.06888 238.613835 
L 475.4904 238.667982 
L 475.91192 238.581347 
L 478.01952 238.841252 
L 479.7056 238.743787 
L 480.12712 238.884569 
L 481.39168 238.787105 
L 482.65624 238.678811 
L 483.07776 238.797934 
L 487.29296 238.440565 
L 488.136 238.603006 
L 488.55752 238.505542 
L 488.97904 238.592176 
L 491.08664 238.429736 
L 491.50816 238.483883 
L 492.3512 238.288954 
L 493.61576 238.310613 
L 494.4588 238.169831 
L 495.72336 238.267296 
L 496.14488 238.505542 
L 496.5664 238.548859 
L 496.98792 238.473053 
L 498.25248 238.70047 
L 498.674 238.646323 
L 499.09552 238.765446 
L 499.93856 238.765446 
L 501.20312 238.787105 
L 502.46768 238.592176 
L 503.73224 238.732958 
L 504.15376 238.776276 
L 505.41832 238.570518 
L 505.83984 238.657153 
L 506.26136 238.505542 
L 510.47656 238.581347 
L 510.89808 238.386419 
L 511.3196 238.451395 
L 512.16264 238.299784 
L 513.00568 238.332272 
L 513.84872 238.397248 
L 515.11328 238.278125 
L 516.37784 238.473053 
L 520.59304 238.429736 
L 521.01456 238.53803 
L 523.12216 238.36476 
L 523.9652 238.36476 
L 524.38672 238.223978 
L 525.65128 238.245637 
L 526.49432 238.234808 
L 526.91584 238.267296 
L 527.33736 238.418907 
L 531.55256 238.5272 
L 532.3956 238.483883 
L 532.81712 238.5272 
L 533.23864 238.711299 
L 539.13992 238.927887 
L 539.98296 238.808764 
L 541 238.677615 
L 541 238.677615 
" clip-path="url(#p9860eedfd2)" style="fill: none; stroke: #0000ff; stroke-width: 1.5; stroke-linecap: square"/>
   </g>
   <g id="line2d_56">
    <path d="M 315.73432 198.631842 
L 327.9584 198.631842 
M 344.8192 198.631842 
L 353.2496 198.631842 
L 353.2496 198.631842 
" clip-path="url(#p9860eedfd2)" style="fill: none; stroke: #ffffff; stroke-width: 1.5; stroke-linecap: square"/>
   </g>
   <g id="line2d_57">
    <path d="M 308.99 235.624932 
L 519.75 235.624932 
" clip-path="url(#p9860eedfd2)" style="fill: none; stroke-dasharray: 3.7,1.6; stroke-dashoffset: 0; stroke: #000000"/>
   </g>
   <g id="line2d_58">
    <path d="M 308.99 239.415208 
L 519.75 239.415208 
" clip-path="url(#p9860eedfd2)" style="fill: none; stroke-dasharray: 3.7,1.6; stroke-dashoffset: 0; stroke: #000000"/>
   </g>
   <g id="patch_15">
    <path d="M 308.99 243.16 
L 308.99 196.511453 
" style="fill: none; stroke: #000000; stroke-width: 0.8; stroke-linejoin: miter; stroke-linecap: square"/>
   </g>
   <g id="patch_16">
    <path d="M 308.99 243.16 
L 519.75 243.16 
" style="fill: none; stroke: #000000; stroke-width: 0.8; stroke-linejoin: miter; stroke-linecap: square"/>
   </g>
   <g id="text_55">
    <g id="patch_17">
     <path d="M 256.3 205.136526 
L 264.96625 205.136526 
L 264.96625 194.179026 
L 256.3 194.179026 
z
" style="fill: #ffffff; stroke: #ffffff; stroke-linejoin: miter"/>
    </g>
    <text style="font: 700 12px 'Arial'; text-anchor: start" x="256.3" y="202.768401" transform="rotate(-0 256.3 202.768401)">D</text>
   </g>
  </g>
 </g>
 <defs>
  <clipPath id="pde7d0efe2a">
   <rect x="41.15" y="14.76" width="210.76" height="228.4"/>
  </clipPath>
  <clipPath id="p1ae8158083">
   <rect x="308.99" y="14.76" width="210.76" height="46.648547"/>
  </clipPath>
  <clipPath id="pdc167ef4f8">
   <rect x="308.99" y="105.635727" width="210.76" height="46.648547"/>
  </clipPath>
  <clipPath id="p9860eedfd2">
   <rect x="308.99" y="196.511453" width="210.76" height="46.648547"/>
  </clipPath>
 </defs>
</svg>
